<svg width="296" height="298" viewBox="0 0 296 298" fill="none" xmlns="http://www.w3.org/2000/svg">
<path d="M134.1 268.1H119.2V193.7C119.2 181.5 128.9 178.9 137 178.9C145.1 178.9 151.9 172.2 151.9 164C151.9 155.8 145.2 149.1 137 149.1C109 149.1 89.5 167.4 89.5 193.6V268H74.6C66.4 268 59.7 261.3 59.7 253.1V148.9C59.7 142.5 55.7 137.1 50 135L149 36L257.5 144.5C263.3 150.3 272.7 150.3 278.5 144.5C284.3 138.7 284.3 129.3 278.5 123.5L159.4 4.39999C153.6 -1.40001 144.2 -1.40001 138.4 4.39999L4.50003 138.3C0.200029 142.6 -0.999968 149 1.30003 154.5C3.60003 160.1 9.00003 163.7 15 163.7H29.9V253C29.9 277.6 49.9 297.6 74.5 297.6H134C142.2 297.6 148.9 290.9 148.9 282.7C148.9 274.5 142.2 267.8 134 267.8L134.1 268.1Z" fill="#47A3EE"/>
<path d="M256.1 254.3C241.5 240.8 237.7 225.8 221.7 225.5C205.7 226.1 202.1 241.1 187.8 254.8C166.7 275 170.9 292.3 184 295.8C197 299.3 208 284.5 222.1 284.7C222.1 284.7 222.1 284.7 222.2 284.7C222.2 284.7 222.2 284.7 222.3 284.7C236.4 284.3 247.6 298.9 260.6 295.2C273.6 291.5 277.5 274.1 256.1 254.3Z" fill="#47A3EE"/>
<path d="M185 246.4C192.8 240.6 191.9 226.1 182.9 214C173.9 201.9 160.4 196.8 152.5 202.5C144.7 208.3 145.6 222.8 154.6 234.9C163.6 247 177.1 252.1 185 246.4Z" fill="#47A3EE"/>
<path d="M290.3 201.4C282.4 195.8 268.9 201.1 260.1 213.4C251.3 225.7 250.6 240.2 258.5 245.8C266.4 251.4 279.9 246.1 288.7 233.8C297.5 221.5 298.2 207 290.3 201.4Z" fill="#47A3EE"/>
<path d="M193.6 158.2C183.5 160.1 177.7 174.3 180.7 189.9C183.6 205.5 194.1 216.6 204.2 214.8C214.3 212.9 220.1 198.7 217.1 183.1C214.2 167.5 203.7 156.4 193.6 158.2Z" fill="#47A3EE"/>
<path d="M248.5 157.8C238.4 156.1 228.1 167.4 225.4 183.1C222.7 198.8 228.8 212.8 238.9 214.6C249 216.3 259.3 205 262 189.3C264.7 173.6 258.6 159.6 248.5 157.8Z" fill="#47A3EE"/>
</svg>
