<svg width="300" height="299" viewBox="0 0 300 299" fill="none" xmlns="http://www.w3.org/2000/svg">
<path d="M252.3 0H46.9C21 0 0 20.9 0 46.8V252.2C0 278.1 21 299 46.9 299H252.3C278.1 299 299.1 278.1 299.1 252.2V46.8C299.1 20.9 278.1 0 252.3 0ZM214.4 99.7C214.4 104.8 210.6 109 205.6 109.6H204.4H174.5V119.6H204.4C209.9 119.6 214.4 124.1 214.4 129.6C214.4 135.1 214.4 130.4 214.3 130.9L214.1 132L204.1 171.9C203.1 175.9 199.7 178.9 195.5 179.4H194.4H174.5V239.2C174.5 244.2 170.7 248.5 165.7 249.1H164.5H124.7C119.6 249.1 115.4 245.3 114.8 240.3V239.2V179.4H94.9C89.9 179.4 85.6 175.6 85 170.6V169.4V129.6C85 124.5 88.8 120.3 93.8 119.7H95H114.9V109.7C114.9 77.6 140.3 51.1 172.4 50H204.5C209.6 50 213.8 53.8 214.4 58.8V60V99.9V99.7Z" fill="#47A3EE"/>
</svg>
