<?xml version="1.0" encoding="UTF-8"?>
<svg xmlns="http://www.w3.org/2000/svg" version="1.1" viewBox="0 0 800 800">
  <defs>
    <style>
      .cls-1 {
        fill: #47a3ee;
      }
    </style>
  </defs>
  <!-- Generator: Adobe Illustrator 28.6.0, SVG Export Plug-In . SVG Version: 1.2.0 Build 709)  -->
  <g>
    <g id="Vrstva_1">
      <path class="cls-1" d="M502.7,250.5h-205.4c-25.9,0-46.9,20.9-46.9,46.8v205.4c0,25.9,21,46.8,46.9,46.8h205.4c25.8,0,46.8-20.9,46.8-46.8v-205.4c0-25.9-21-46.8-46.8-46.8ZM464.8,350.2c0,5.1-3.8,9.3-8.8,9.9h-1.2c0,0-29.9,0-29.9,0v10h29.9c5.5,0,10,4.5,10,10s0,.8-.1,1.3l-.2,1.1-10,39.9c-1,4-4.4,7-8.6,7.5h-1.1c0,0-19.9,0-19.9,0v59.8c0,5-3.8,9.3-8.8,9.9h-1.2c0,0-39.8,0-39.8,0-5.1,0-9.3-3.8-9.9-8.8v-1.1c0,0,0-59.8,0-59.8h-19.9c-5,0-9.3-3.8-9.9-8.8v-1.2s0-39.8,0-39.8c0-5.1,3.8-9.3,8.8-9.9h1.2c0,0,19.9,0,19.9,0v-10c0-32.1,25.4-58.6,57.5-59.7h32.1c5.1,0,9.3,3.8,9.9,8.8v1.2c0,0,0,39.9,0,39.9Z"/>
    </g>
  </g>
</svg>