<svg width="696" height="208" viewBox="0 0 696 208" fill="none" xmlns="http://www.w3.org/2000/svg">
<path d="M113.9 76.5999V40.0999H0.0999756V205.2H51.7V142.1H109.3V109.9H51.7V76.4998H113.9V76.5999Z" fill="#47A3EE"/>
<path d="M220 84.9999V111.2C216 101.3 210.3 94.1999 203 89.7999C195.6 85.4999 188 83.2999 180.2 83.2999C172.4 83.2999 159.2 85.8999 150.2 91.0999C141.2 96.2999 134.2 103.5 129 112.6C123.8 121.7 121.2 132.4 121.2 144.5C121.2 156.6 123.8 167.5 129 176.9C134.2 186.3 141.3 193.7 150.2 199.1C159.2 204.5 169.2 207.1 180.2 207.1C191.2 207.1 197.8 205 204.2 200.9C210.6 196.7 215.7 190.8 219.6 182.9V205.2H270V84.8999H220.1L220 84.9999ZM180.3 106.6C184.5 104 191.2 107.2 195.2 113.7C199.2 120.2 199.1 127.6 194.9 130.2C190.7 132.8 184 129.6 180 123.1C176 116.6 176.1 109.2 180.3 106.6ZM151.6 117.7C154.4 113.3 162.2 113.2 169 117.6C175.8 121.9 179.1 129 176.3 133.4C173.5 137.8 165.7 137.9 158.9 133.6C152.1 129.3 148.8 122.2 151.6 117.8V117.7ZM141 143.6C142.1 138.5 149.4 135.7 157.3 137.4C165.2 139.1 170.7 144.6 169.6 149.7C168.5 154.8 161.2 157.6 153.3 155.9C145.4 154.2 139.8 148.7 140.9 143.6H141ZM169.4 177C161.9 178.8 155 176.4 153.8 171.6C152.6 166.8 157.7 161.4 165.2 159.6C172.6 157.8 179.6 160.2 180.8 165C182 169.8 176.9 175.2 169.5 177H169.4ZM218.6 139.1C217.8 145.9 208.8 148.3 206.2 155C203.3 161.6 208.1 169.6 203.9 175.1C199.7 180.5 190.7 179.1 185.4 165.3C181.8 155.9 175.4 151.2 178.3 143.6C181.6 136.1 189.4 137.3 198.6 133.1C212.1 126.9 219.5 132.2 218.7 139L218.6 139.1Z" fill="#47A3EE"/>
<path d="M383.3 172.1C378.1 173.1 373.2 173.5 368.5 173.5C353.9 173.5 344 168.1 338.7 157.4L410.2 148.3C410.2 127.5 405.4 111.5 395.8 100.2C386.2 88.9 372.3 83.2999 354.3 83.2999C336.3 83.2999 331 85.8999 320.9 90.9999C310.8 96.0999 302.8 103.3 296.8 112.6C290.8 121.9 287.8 132.8 287.8 145.2C287.8 157.6 290.6 168.1 296.2 177.4C301.8 186.7 310.1 194 321 199.2C332 204.5 345.5 207.1 361.7 207.1C377.9 207.1 378.6 206.3 385.6 204.7C392.6 203.1 399 200.8 404.9 197.7L399.1 166.7C393.6 169.2 388.3 171 383.1 172L383.3 172.1ZM341.3 119C345.1 114.6 350.1 112.4 356.5 112.4C362.9 112.4 364.4 113.6 367.3 116.1C370.2 118.6 371.9 122.4 372.6 127.5L334.9 135.4C335.4 128.8 337.5 123.4 341.3 119Z" fill="#47A3EE"/>
<path d="M501.5 165.4C497.7 167.3 493.8 168.3 490 168.3C486.2 168.3 483 167.3 480.6 165.3C478.2 163.3 477 160.5 477 156.8V34.8999L426.4 42.2999V163.8C426.4 172 428 179.3 431.2 185.9C434.4 192.5 439.5 197.7 446.7 201.5C453.8 205.3 463.1 207.3 474.4 207.3C485.7 207.3 484.6 206.6 490.5 205.1C496.4 203.7 501.3 201.6 505.1 198.9L501.5 165.5V165.4Z" fill="#47A3EE"/>
<path d="M587.9 165.4C584.5 167.3 581.3 168.3 578.1 168.3C574.9 168.3 572.5 167.3 570.3 165.3C568.2 163.3 567.1 160.5 567.1 156.8V84.9999H516.4V163.7C516.4 171.9 517.9 179.2 521 185.8C524 192.4 528.9 197.6 535.5 201.4C542.1 205.2 550.8 207.2 561.5 207.2C572.2 207.2 571.3 206.5 576.9 205C582.5 203.6 587.1 201.5 590.6 198.8L587.9 165.4Z" fill="#47A3EE"/>
<path d="M691.6 148.7C689 144.1 685.7 140.5 681.6 137.8C677.5 135.1 673.2 133 668.8 131.4C664.3 129.9 660 128.7 656 127.8C651.9 126.9 648.6 126 646 125C643.4 124 642.2 122.7 642.2 120.9C642.2 119.1 643.5 117.1 646.2 116.1C648.8 115.1 653.1 114.7 659 114.7C668.3 114.7 677.1 116.5 685.6 120L690.6 90.7C685.3 87.7 679.8 85.7 673.9 84.7C668 83.7 661.8 83.2999 655 83.2999C637.6 83.2999 623.8 87.0999 613.8 94.5999C603.8 102.1 598.8 112.2 598.8 124.8C598.8 137.4 600 138.4 602.5 143.1C605 147.7 608.2 151.3 612.1 153.8C616 156.3 620.2 158.1 624.7 159.3C629.2 160.5 633.4 161.4 637.3 162.2C641.2 162.9 644.4 163.8 646.9 164.7C649.4 165.7 650.6 167.2 650.6 169.3C650.6 173.6 646.6 175.8 638.6 175.8C630.6 175.8 628 175.1 621.6 173.8C615.2 172.4 610.2 170.8 606.5 168.9L599.5 199.1C605.4 201.7 612.1 203.7 619.4 205.1C626.7 206.5 634 207.3 641.2 207.3C658.3 207.3 671.6 203.7 681.1 196.5C690.5 189.3 695.3 179.3 695.3 166.5C695.3 153.7 694 153.4 691.5 148.9L691.6 148.7Z" fill="#47A3EE"/>
<path d="M542.5 35.3999C534.3 35.6999 532.5 43.2999 525.2 50.2999C514.5 60.5999 516.6 69.4 523.3 71.2C529.9 73 535.5 65.4999 542.7 65.4999C549.9 65.2999 555.6 72.6999 562.2 70.7999C568.8 68.8999 570.8 60.0999 559.9 49.8999C552.5 42.9999 550.5 35.4 542.4 35.2L542.5 35.3999Z" fill="#47A3EE"/>
<path d="M522.8 29.4999C527.4 35.6999 527.8 43.0999 523.9 45.9999C519.9 48.8999 513 46.2999 508.4 40.1999C503.8 33.9999 503.4 26.5999 507.3 23.6999C511.3 20.7999 518.2 23.3999 522.8 29.4999Z" fill="#47A3EE"/>
<path d="M562.2 29.1C557.7 35.3 557.4 42.7 561.4 45.6C565.4 48.5 572.3 45.7 576.8 39.5C581.3 33.3 581.6 25.9 577.6 23C573.6 20.1 566.7 22.9 562.2 29.1Z" fill="#47A3EE"/>
<path d="M540.2 13.7C541.7 21.7 538.7 28.8999 533.6 29.7999C528.5 30.7999 523.1 25.1 521.6 17.1C520.1 9.09995 523.1 1.89995 528.2 0.999948C533.3 -5.21094e-05 538.7 5.69996 540.2 13.7Z" fill="#47A3EE"/>
<path d="M544.5 13.7C543.1 21.7 546.2 28.9 551.4 29.7C556.5 30.6 561.8 24.8 563.2 16.8C564.6 8.79995 561.5 1.59997 556.3 0.799969C551.2 -0.100031 545.9 5.69998 544.5 13.7Z" fill="#47A3EE"/>
</svg>
