<svg width="286" height="300" viewBox="0 0 286 300" fill="none" xmlns="http://www.w3.org/2000/svg">
<path d="M214.4 28.6H200.1V14.3C200.1 6.39999 193.7 0 185.9 0C178.1 0 171.6 6.39999 171.6 14.3V28.6H85.8999V14.3C85.8999 6.39999 79.4999 0 71.5999 0C63.6999 0 57.2999 6.39999 57.2999 14.3V28.6H42.9999C19.3999 28.6 0.199951 47.8 0.199951 71.4V242.7C0.199951 266.3 19.3999 285.5 42.9999 285.5H121.5C129.4 285.5 135.8 279.1 135.8 271.3C135.8 263.5 129.4 257 121.5 257H42.9999C35.0999 257 28.7 250.6 28.7 242.7V142.8H242.8C250.7 142.8 257.1 136.4 257.1 128.5V71.4C257.1 47.8 237.9 28.6 214.3 28.6H214.4ZM228.6 114.3H28.7V71.5C28.7 63.6 35.0999 57.2 42.9999 57.2H57.2999V71.5C57.2999 79.4 63.6999 85.8 71.5999 85.8C79.4999 85.8 85.8999 79.4 85.8999 71.5V57.2H171.6V71.5C171.6 79.4 178 85.8 185.9 85.8C193.8 85.8 200.1 79.4 200.1 71.5V57.2H214.4C222.3 57.2 228.7 63.6 228.7 71.5V114.3H228.6Z" fill="#47A3EE"/>
<path d="M272.3 184.7C256.4 169.1 232.4 167.3 214.5 179.1C196.7 167.2 172.7 168.9 156.7 184.4C148.1 192.8 143.2 204 143.1 215.9C142.9 227.9 147.4 239.2 156.6 248.7L204.5 295.8C207.3 298.5 210.9 299.9 214.5 299.9C218.1 299.9 221.7 298.5 224.5 295.8L272.3 248.9C280.9 240.5 285.8 229.3 285.9 217.4C286.1 205.4 281.6 194.1 272.4 184.6L272.3 184.7ZM252.2 228.5L214.4 265.6L176.2 228C169.9 221.5 170.1 211.2 176.6 204.9C180.1 201.5 184.5 199.9 189 199.9C193.5 199.9 197.9 201.6 201.3 204.9L204.5 208C210.1 213.5 219 213.6 224.6 208L227.7 205C234.7 198.3 245.5 198.3 252.8 205.4C259 211.9 258.9 222.2 252.4 228.5H252.2Z" fill="#47A3EE"/>
</svg>
