<?xml version="1.0" encoding="UTF-8"?>
<svg xmlns="http://www.w3.org/2000/svg" version="1.1" viewBox="0 0 800 800">
  <defs>
    <style>
      .cls-1 {
        fill: #47a3ee;
      }
    </style>
  </defs>
  <!-- Generator: Adobe Illustrator 28.6.0, SVG Export Plug-In . SVG Version: 1.2.0 Build 709)  -->
  <g>
    <g id="Vrstva_1">
      <g>
        <path class="cls-1" d="M82.5,528.1c-1.6,1.4-3.9,2.1-6.9,2.1s-6.1-1.2-7.5-3.7c-1.5-2.5-2.2-6.6-2.2-12.5v-3.8c0-5.4.9-9.3,2.4-11.7,1.5-2.5,3.9-3.7,7.2-3.7s5.6.7,7.2,2.2,2.4,3.8,2.5,7.2h13.1c-.5-6.1-2.8-10.9-6.8-14.4-4-3.5-9.3-5.2-15.9-5.2s-8.6,1.1-12.1,3.3c-3.5,2.2-6.2,5.3-8,9.3-1.9,4-2.8,8.7-2.8,14v2.7c0,8.5,2.1,15.1,6.2,19.8,4.1,4.7,9.8,7,16.9,7s8.2-.8,11.6-2.4c3.4-1.6,6-3.8,7.9-6.7,1.9-2.9,2.9-6.3,3.1-10.1h-13.1c-.1,3.1-1,5.4-2.5,6.8Z"/>
        <path class="cls-1" d="M136.5,502.6c-2.3-2.6-5.6-4-10.1-4s-7.6,1.7-10.3,5.1v-21.3h-12.6v57.5h12.6v-29c1.1-1.6,2.9-2.5,5.5-2.5s3.6.5,4.4,1.5c.9,1,1.3,2.6,1.3,4.7v25.3h12.6v-25.6c0-5.2-1.2-9.1-3.5-11.7Z"/>
        <path class="cls-1" d="M179.2,504.2c-3.5-3.8-8.3-5.6-14.3-5.6s-7.4.8-10.3,2.5-5.2,4.1-6.8,7.3c-1.6,3.1-2.4,6.8-2.4,10.8v2.1c.3,5.9,2.2,10.6,5.7,14,3.5,3.4,8.1,5.2,13.9,5.2s10.7-1.8,14.2-5.6c3.5-3.7,5.3-8.7,5.3-15v-.5c0-6.5-1.8-11.6-5.2-15.3ZM171.8,520.5c-.1,6.9-2.4,10.4-6.9,10.4s-4-.9-5.2-2.6c-1.2-1.8-1.8-4.5-1.8-8.2v-2.3c.4-6.2,2.7-9.4,6.9-9.4s7,3.6,7,10.9v1.3Z"/>
        <path class="cls-1" d="M211.9,499.3l-6.4,25.5-6.3-25.5h-13.3l13.2,40.5h12.9l13.2-40.5h-13.3Z"/>
        <path class="cls-1" d="M262.1,530.6v-17.9c0-4.4-1.6-7.8-4.6-10.4-3-2.5-7.1-3.8-12.2-3.8s-9.4,1.2-12.7,3.7c-3.3,2.4-5,5.6-5,9.5h12.6c0-3,1.5-4.4,4.5-4.4s4.8,1.9,4.8,5.6v2.1h-3.9c-6.2,0-10.9,1.1-14.1,3.4-3.3,2.2-4.9,5.6-4.9,9.9s1.3,6.4,4,8.7c2.7,2.3,5.9,3.5,9.7,3.5s7.4-1.5,9.7-4.4c.4,1.6.8,2.8,1.2,3.6h12.6v-.7c-1.1-2-1.7-4.8-1.7-8.5ZM249.5,528.3c-.5.8-1.2,1.6-2.2,2.3s-2.3,1-3.9,1-2.2-.4-2.9-1.1c-.8-.7-1.2-1.6-1.2-2.8,0-4,2.2-5.9,6.6-5.9h3.7v6.5Z"/>
        <path class="cls-1" d="M287.8,530.7c-1.6,0-2.7-.3-3.3-.9-.5-.6-.8-1.7-.8-3.2v-18.5h6.6v-8.8h-6.6v-10.1h-12.6v10.1h-5.2v8.8h5.2v20.1c0,4.2,1,7.3,3.1,9.3,2.1,2,5.3,3.1,9.6,3.1s4.8-.4,7.1-1.1v-9c-.8.1-1.9.2-3.1.2Z"/>
        <path class="cls-1" d="M332,518.6c0-6.3-1.6-11.2-4.9-14.8-3.3-3.5-7.8-5.3-13.5-5.3s-7.5.9-10.5,2.6c-2.9,1.7-5.2,4.2-6.7,7.3s-2.3,6.8-2.3,11v1c0,5.9,1.9,10.7,5.8,14.4,3.8,3.7,8.9,5.6,15.1,5.6s6.4-.6,9.3-1.9c2.9-1.3,5.1-3,6.7-5.2l-5.8-6.8c-2.2,2.8-5.4,4.2-9.4,4.2s-4.4-.7-5.9-2c-1.5-1.3-2.5-3.1-3-5.3h25.1v-4.9ZM319.7,515.7h-12.7c.7-4.9,2.9-7.3,6.6-7.3s3.5.6,4.6,1.7c1.1,1.1,1.6,2.7,1.5,4.7v1Z"/>
        <path class="cls-1" d="M337.7,482.4v57.5h12.6v-57.5h-12.6Z"/>
        <path class="cls-1" d="M382.4,516.8c-1.8-.6-3.9-1.2-6.3-1.6-2.4-.5-4.2-1-5.3-1.7-1.1-.7-1.6-1.6-1.6-2.7s.5-2,1.3-2.7c.9-.7,2-1.1,3.3-1.1,3.4,0,5.1,1.6,5.1,4.9h12.6c0-3.9-1.6-7.1-4.9-9.5-3.2-2.4-7.5-3.6-12.9-3.6s-9,1.2-12,3.6c-3.1,2.4-4.6,5.5-4.6,9.2s.5,4,1.6,5.6c1.1,1.6,2.6,3,4.7,4.1s4.6,2,7.8,2.7c3.1.7,5.3,1.4,6.4,2,1.1.7,1.7,1.5,1.7,2.6s-.4,2-1.3,2.7c-.9.7-2.1,1-3.9,1s-3.4-.4-4.6-1.3c-1.2-.9-1.8-2.2-1.9-4.1h-11.8c0,2.4.8,4.6,2.3,6.8,1.5,2.1,3.6,3.8,6.4,5.1,2.7,1.3,5.8,1.9,9.3,1.9,5.2,0,9.5-1.2,12.7-3.5,3.3-2.3,4.9-5.3,4.9-9,0-5.4-3.1-9.2-9.1-11.2Z"/>
        <path class="cls-1" d="M421.8,516l14.2-16.6h-15.1l-9.5,11.8-1.3,1.7v-30.5h-12.6v57.5h12.6v-11.5l3.6-3.6,8.8,15.1h14.4l-15.1-23.8Z"/>
        <path class="cls-1" d="M457.3,482.4l-7.4,11.7h10.3s10.4-11.7,10.4-11.7h-13.3ZM473,530.6v-17.9c0-4.4-1.6-7.8-4.6-10.4-3-2.5-7.1-3.8-12.2-3.8s-9.4,1.2-12.7,3.7c-3.3,2.4-5,5.6-5,9.5h12.6c0-3,1.5-4.4,4.5-4.4s4.8,1.9,4.8,5.6v2.1h-3.9c-6.2,0-10.9,1.1-14.1,3.4-3.3,2.2-4.9,5.6-4.9,9.9s1.3,6.4,4,8.7c2.7,2.3,5.9,3.5,9.7,3.5s7.4-1.5,9.7-4.4c.4,1.6.8,2.8,1.2,3.6h12.6v-.7c-1.1-2-1.7-4.8-1.7-8.5ZM460.3,528.3c-.5.8-1.2,1.6-2.2,2.3-1,.7-2.3,1-3.9,1s-2.2-.4-3-1.1c-.8-.7-1.2-1.6-1.2-2.8,0-4,2.2-5.9,6.6-5.9h3.7v6.5Z"/>
        <path class="cls-1" d="M523.2,516.8c-1.8-.6-3.9-1.2-6.3-1.6-2.4-.5-4.2-1-5.3-1.7-1.1-.7-1.6-1.6-1.6-2.7s.5-2,1.4-2.7c.9-.7,2-1.1,3.3-1.1,3.4,0,5.1,1.6,5.1,4.9h12.6c0-3.9-1.6-7.1-4.9-9.5-3.3-2.4-7.5-3.6-12.9-3.6s-9,1.2-12,3.6c-3.1,2.4-4.6,5.5-4.6,9.2s.5,4,1.6,5.6c1.1,1.6,2.6,3,4.7,4.1,2.1,1.1,4.6,2,7.8,2.7,3.1.7,5.3,1.4,6.4,2,1.1.7,1.7,1.5,1.7,2.6s-.4,2-1.3,2.7c-.8.7-2.1,1-3.9,1s-3.4-.4-4.6-1.3c-1.2-.9-1.8-2.2-1.9-4.1h-11.8c0,2.4.8,4.6,2.3,6.8,1.5,2.1,3.6,3.8,6.4,5.1,2.7,1.3,5.8,1.9,9.3,1.9,5.2,0,9.5-1.2,12.7-3.5,3.3-2.3,4.9-5.3,4.9-9,0-5.4-3.1-9.2-9.1-11.2Z"/>
        <path class="cls-1" d="M557,530.7c-1.6,0-2.7-.3-3.3-.9-.6-.6-.8-1.7-.8-3.2v-18.5h6.7v-8.8h-6.7v-10.1h-12.6v10.1h-5.2v8.8h5.2v20.1c0,4.2,1,7.3,3.1,9.3,2.1,2,5.3,3.1,9.6,3.1s4.8-.4,7.1-1.1v-9c-.8.1-1.9.2-3.1.2Z"/>
        <path class="cls-1" d="M598.2,530.6v-17.9c0-4.4-1.6-7.8-4.6-10.4-3-2.5-7.1-3.8-12.2-3.8s-9.4,1.2-12.7,3.7c-3.3,2.4-5,5.6-5,9.5h12.6c0-3,1.5-4.4,4.5-4.4s4.8,1.9,4.8,5.6v2.1h-3.9c-6.2,0-10.9,1.1-14.1,3.4-3.2,2.2-4.9,5.6-4.9,9.9s1.3,6.4,4,8.7c2.7,2.3,5.9,3.5,9.7,3.5s7.4-1.5,9.7-4.4c.3,1.6.7,2.8,1.2,3.6h12.6v-.7c-1.1-2-1.7-4.8-1.7-8.5ZM585.6,528.3c-.5.8-1.2,1.6-2.2,2.3-1,.7-2.3,1-3.9,1s-2.2-.4-3-1.1c-.8-.7-1.2-1.6-1.2-2.8,0-4,2.2-5.9,6.6-5.9h3.7v6.5Z"/>
        <path class="cls-1" d="M638.2,502.4c-2.1-2.5-5.2-3.8-9.4-3.8s-8.8,1.8-11.6,5.5l-.4-4.7h-11.8v40.5h12.6v-28.6c1.2-2,3-2.9,5.5-2.9s3.7.5,4.5,1.4c.8,1,1.2,2.5,1.2,4.5v25.6h12.6v-26.1c0-5.1-1.2-8.8-3.2-11.4Z"/>
        <path class="cls-1" d="M649.1,499.3v40.5h12.6v-40.5h-12.6ZM660.4,484.5c-1.3-1.2-3-1.7-5.1-1.7s-3.8.6-5.1,1.7c-1.3,1.1-1.9,2.6-1.9,4.4s.6,3.3,1.9,4.4c1.3,1.1,3,1.7,5.1,1.7s3.8-.6,5.1-1.7c1.3-1.2,1.9-2.6,1.9-4.4s-.7-3.3-1.9-4.4Z"/>
        <path class="cls-1" d="M690.7,529.4c-1,1-2.3,1.4-4.1,1.4s-3.7-.8-4.6-2.4c-1-1.6-1.5-4.4-1.5-8.5s0-4.1.3-5.5c.5-4.2,2.5-6.2,5.7-6.2s3.1.6,4.1,1.7c1,1.1,1.5,2.7,1.5,4.8h11.8c0-5-1.6-8.9-4.6-11.9-3.1-2.9-7.3-4.4-12.5-4.4s-7.3.8-10.1,2.5c-2.9,1.7-5,4.1-6.5,7.2-1.5,3.1-2.3,6.7-2.3,10.8v.5c0,6.5,1.7,11.6,5.1,15.3,3.4,3.7,8,5.5,13.9,5.5s9.1-1.4,12.3-4.3c3.2-2.8,4.8-6.5,4.8-10.9h-11.8c0,1.7-.5,3.1-1.4,4Z"/>
        <path class="cls-1" d="M745.9,518.6c0-6.3-1.6-11.2-4.9-14.8-3.3-3.5-7.8-5.3-13.5-5.3s-7.5.9-10.5,2.6c-2.9,1.7-5.2,4.2-6.7,7.3-1.5,3.2-2.3,6.8-2.3,11v1c0,5.9,1.9,10.7,5.8,14.4,3.8,3.7,8.9,5.6,15.1,5.6s6.4-.6,9.3-1.9c2.9-1.3,5.1-3,6.7-5.2l-5.8-6.8c-2.2,2.8-5.4,4.2-9.4,4.2s-4.4-.7-5.9-2c-1.5-1.3-2.5-3.1-3-5.3h25.1v-4.9ZM733.6,515.7h-12.7c.7-4.9,2.9-7.3,6.6-7.3s3.5.6,4.6,1.7c1.1,1.1,1.6,2.7,1.5,4.7v1Z"/>
      </g>
      <g>
        <path class="cls-1" d="M165.9,324.6v-36.5H52.1v165.1h51.6v-63.1h57.6v-32.2h-57.6v-33.4h62.2Z"/>
        <path class="cls-1" d="M272,333v26.2c-4-9.9-9.7-17-17-21.4-7.4-4.3-15-6.5-22.8-6.5s-21,2.6-30,7.8c-9,5.2-16,12.4-21.2,21.5-5.2,9.1-7.8,19.8-7.8,31.9s2.6,23,7.8,32.4c5.2,9.4,12.3,16.8,21.2,22.2,9,5.4,19,8,30,8s17.6-2.1,24-6.2c6.4-4.2,11.5-10.1,15.4-18v22.3h50.4v-120.3h-49.9ZM232.3,354.6c4.2-2.6,10.9.6,14.9,7.1,4,6.5,3.9,13.9-.3,16.5-4.2,2.6-10.9-.6-14.9-7.1-4-6.5-3.9-13.9.3-16.5ZM203.6,365.7c2.8-4.4,10.6-4.5,17.4-.1,6.8,4.3,10.1,11.4,7.3,15.8-2.8,4.4-10.6,4.5-17.4.2-6.8-4.3-10.1-11.4-7.3-15.8ZM193,391.6c1.1-5.1,8.4-7.9,16.3-6.2,7.9,1.7,13.4,7.2,12.3,12.3-1.1,5.1-8.4,7.9-16.3,6.2-7.9-1.7-13.5-7.2-12.4-12.3ZM221.4,425c-7.5,1.8-14.4-.6-15.6-5.4-1.2-4.8,3.9-10.2,11.4-12,7.4-1.8,14.4.6,15.6,5.4,1.2,4.8-3.9,10.2-11.3,12ZM270.6,387.1c-.8,6.8-9.8,9.2-12.4,15.9,0,0,0,0,0,0s0,0,0,0c-2.9,6.6,1.9,14.6-2.3,20.1-4.2,5.4-13.2,4-18.5-9.8-3.6-9.4-10-14.1-7.1-21.7,3.3-7.5,11.1-6.3,20.3-10.5,13.5-6.2,20.9-.9,20.1,5.9Z"/>
        <path class="cls-1" d="M435.3,420.1c-5.2,1-10.1,1.4-14.8,1.4-14.6,0-24.5-5.4-29.8-16.1l71.5-9.1c0-20.8-4.8-36.8-14.4-48.1-9.6-11.3-23.5-16.9-41.5-16.9s-23.3,2.6-33.4,7.7c-10.1,5.1-18.1,12.3-24.1,21.6-6,9.3-9,20.2-9,32.6s2.8,22.9,8.4,32.2c5.6,9.3,13.9,16.6,24.8,21.8,11,5.3,24.5,7.9,40.7,7.9s16.9-.8,23.9-2.4c7-1.6,13.4-3.9,19.3-7l-5.8-31c-5.5,2.5-10.8,4.3-16,5.3ZM393.3,367c3.8-4.4,8.8-6.6,15.2-6.6s7.9,1.2,10.8,3.7c2.9,2.5,4.6,6.3,5.3,11.4l-37.7,7.9c.5-6.6,2.6-12,6.4-16.4Z"/>
        <path class="cls-1" d="M553.5,413.4c-3.8,1.9-7.7,2.9-11.5,2.9s-7-1-9.4-3-3.6-4.8-3.6-8.5v-121.9l-50.6,7.4v121.5c0,8.2,1.6,15.5,4.8,22.1,3.2,6.6,8.3,11.8,15.5,15.6,7.1,3.8,16.4,5.8,27.7,5.8s10.2-.7,16.1-2.2c5.9-1.4,10.8-3.5,14.6-6.2l-3.6-33.4Z"/>
        <path class="cls-1" d="M639.9,413.4c-3.4,1.9-6.6,2.9-9.8,2.9s-5.6-1-7.8-3c-2.1-2-3.2-4.8-3.2-8.5v-71.8h-50.7v78.7c0,8.2,1.5,15.5,4.6,22.1,3,6.6,7.9,11.8,14.5,15.6,6.6,3.8,15.3,5.8,26,5.8s9.8-.7,15.4-2.2c5.6-1.4,10.2-3.5,13.7-6.2l-2.7-33.4Z"/>
        <path class="cls-1" d="M743.6,396.7c-2.6-4.6-5.9-8.2-10-10.9-4.1-2.7-8.4-4.8-12.8-6.4-4.5-1.5-8.8-2.7-12.8-3.6-4.1-.9-7.4-1.8-10-2.8-2.6-1-3.8-2.3-3.8-4.1s1.3-3.8,4-4.8c2.6-1,6.9-1.4,12.8-1.4,9.3,0,18.1,1.8,26.6,5.3l5-29.3c-5.3-3-10.8-5-16.7-6-5.9-1-12.1-1.4-18.9-1.4-17.4,0-31.2,3.8-41.2,11.3-10,7.5-15,17.6-15,30.2s1.2,13.6,3.7,18.3c2.5,4.6,5.7,8.2,9.6,10.7,3.9,2.5,8.1,4.3,12.6,5.5,4.5,1.2,8.7,2.1,12.6,2.9,3.9.7,7.1,1.6,9.6,2.5,2.5,1,3.7,2.5,3.7,4.6,0,4.3-4,6.5-12,6.5s-10.6-.7-17-2c-6.4-1.4-11.4-3-15.1-4.9l-7,30.2c5.9,2.6,12.6,4.6,19.9,6,7.3,1.4,14.6,2.2,21.8,2.2,17.1,0,30.4-3.6,39.9-10.8,9.4-7.2,14.2-17.2,14.2-30s-1.3-13.1-3.8-17.6Z"/>
      </g>
      <g>
        <path class="cls-1" d="M594.5,283.4c-8.2.3-10,7.9-17.3,14.9-10.7,10.3-8.6,19.1-1.9,20.9,6.6,1.8,12.2-5.7,19.4-5.7,0,0,0,0,0,0,0,0,0,0,0,0,7.2-.2,12.9,7.2,19.5,5.3,6.6-1.9,8.6-10.7-2.3-20.9-7.4-6.9-9.4-14.5-17.5-14.7Z"/>
        <path class="cls-1" d="M574.8,277.5c4.6,6.2,5,13.6,1.1,16.5-4,2.9-10.9.3-15.5-5.8-4.6-6.2-5-13.6-1.1-16.5,4-2.9,10.9-.3,15.5,5.8Z"/>
        <path class="cls-1" d="M614.2,277.1c-4.5,6.2-4.8,13.6-.8,16.5,4,2.9,10.9.1,15.4-6.1,4.5-6.2,4.8-13.6.8-16.5-4-2.9-10.9-.1-15.4,6.1Z"/>
        <path class="cls-1" d="M592.2,261.7c1.5,8-1.5,15.2-6.6,16.1-5.1,1-10.5-4.7-12-12.7-1.5-8,1.5-15.2,6.6-16.1,5.1-1,10.5,4.7,12,12.7Z"/>
        <path class="cls-1" d="M596.5,261.7c-1.4,8,1.7,15.2,6.9,16,5.1.9,10.4-4.9,11.8-12.9,1.4-8-1.7-15.2-6.9-16-5.1-.9-10.4,4.9-11.8,12.9Z"/>
      </g>
    </g>
  </g>
</svg>