<svg width="332" height="299" viewBox="0 0 332 299" fill="none" xmlns="http://www.w3.org/2000/svg">
<path d="M291.9 20.5C270.7 4.6 244.7 -2.1 218.3 1.60001C198.6 4.4 180.6 12.8 166.1 25.8C147.5 8.99999 123.5 -0.099998 98.3 0.300002C71.8 0.700002 47 11.3 28.5 30.3C9.99999 49.3 -2.02684e-05 74.4 0.39998 100.9C0.79998 127.4 11.4 152.2 30.3 170.6L154.4 293.5C157.6 296.7 161.8 298.3 166 298.3C170.2 298.3 174.4 296.7 177.7 293.5L199.2 272.1L220.1 293.3C223.2 296.5 227.5 298.2 231.9 298.2H232C236.4 298.2 240.6 296.4 243.7 293.3L313.2 223.4C334.4 201.9 336.9 168.6 320.8 144.3C342.1 102 330.5 49.6 291.7 20.5H291.9ZM166.1 258.4L53.6 146.9C40.9 134.6 33.8 118.1 33.6 100.4C33.4 82.7 40 66 52.3 53.3C64.7 40.6 81.2 33.5 98.8 33.3C116.2 33.5 133.2 39.7 145.8 52C148.3 54.5 150.7 57.1 152.8 60C155.9 64.2 160.8 66.6 166.1 66.6C171.4 65.9 176.2 64.2 179.4 60C190 45.8 205.5 36.7 223 34.2C240.5 31.7 257.9 36.2 272.1 46.8C295.7 64.5 304.1 95.1 294.7 121.7C287 118.2 278.5 116.3 269.8 116.2C256.1 115.9 243.4 120.3 232.4 128.4C208.3 110.4 173.9 112.2 151.3 134.4C127.2 158.8 127.1 198.5 151.1 223L176.1 248.3L166.2 258.2L166.1 258.4ZM289.8 200.1L232.1 258.2L211.7 237.5C211.5 237.3 211.4 237 211.2 236.9C211 236.7 210.8 236.6 210.6 236.4L174.6 199.9C163.2 188.3 163.2 169.4 175 157.6C180.6 152.1 187.9 149.3 195.2 149.3C202.5 149.3 210.2 152.2 215.8 158L220.4 162.7C223.5 165.8 227.7 167.6 232.1 167.6C236.5 167.6 240.7 165.8 243.8 162.7L248.7 157.8C254.2 152.4 262 149.9 269.2 149.5C276.9 149.5 284.1 152.6 289.6 158.2C301 169.8 301 188.6 289.6 200.2L289.8 200.1Z" fill="#47A3EE"/>
</svg>
