<svg width="1280" height="720" viewBox="0 0 1280 720" fill="none" xmlns="http://www.w3.org/2000/svg">
<g clip-path="url(#clip0_236_216)">
<path d="M220.497 676.074C213.667 675.809 211.656 682.055 205.149 687.35C195.562 695.207 196.769 702.678 202.136 704.59C207.503 706.502 212.649 700.638 218.657 701.079C224.646 701.427 228.898 707.965 234.557 706.762C240.125 705.578 242.418 698.413 233.999 689.327C228.287 683.1 227.111 676.672 220.387 676.002L220.497 676.074Z" fill="#d6e6f3"/>
<path d="M204.481 669.843C207.822 675.238 207.805 681.443 204.263 683.627C200.72 685.811 195.198 683.169 191.765 677.793C188.424 672.397 188.441 666.192 191.984 664.008C195.526 661.824 201.049 664.467 204.481 669.843Z" fill="#d6e6f3"/>
<path d="M237.234 672.23C233.12 677.111 232.334 683.289 235.458 685.868C238.602 688.539 244.51 686.711 248.624 681.83C252.738 676.948 253.524 670.771 250.399 668.192C247.256 665.521 241.348 667.349 237.234 672.23Z" fill="#d6e6f3"/>
<path d="M219.986 657.961C220.744 664.669 217.776 670.451 213.499 670.979C209.204 671.415 205.08 666.376 204.413 659.649C203.655 652.942 206.624 647.159 210.919 646.723C215.215 646.287 219.339 651.325 220.006 658.052L219.986 657.961Z" fill="#d6e6f3"/>
<path d="M223.558 658.156C221.898 664.71 223.967 670.853 228.208 671.955C232.449 673.057 237.227 668.607 238.795 662.072C240.455 655.518 238.386 649.375 234.145 648.273C229.904 647.171 225.126 651.622 223.558 658.156Z" fill="#d6e6f3"/>
<path d="M135.704 609.286C141.836 606.265 146.214 611.154 154.312 613.344C166.266 616.623 168.202 623.939 164.077 627.869C159.951 631.798 152.866 628.534 147.556 631.38C142.226 634.135 141.002 641.836 135.342 643.039C129.774 644.223 124.765 638.609 128.76 626.885C131.446 618.873 129.905 612.522 135.776 609.175L135.704 609.286Z" fill="#d6e6f3"/>
<path d="M147.821 597.171C146.963 603.458 149.502 609.12 153.627 609.674C157.752 610.228 161.722 605.568 162.671 599.261C163.529 592.973 160.99 587.312 156.865 586.758C152.74 586.203 148.77 590.863 147.821 597.171Z" fill="#d6e6f3"/>
<path d="M118.851 612.582C124.595 615.368 127.826 620.691 126.021 624.319C124.235 628.037 118.095 628.77 112.351 625.984C106.607 623.198 103.377 617.874 105.182 614.247C106.967 610.529 113.108 609.796 118.851 612.582Z" fill="#d6e6f3"/>
<path d="M128.804 592.531C130.84 598.967 135.904 603.043 140.025 601.785C144.127 600.436 145.845 594.156 143.718 587.739C141.682 581.303 136.618 577.228 132.516 578.577C128.414 579.926 126.696 586.206 128.824 592.622L128.804 592.531Z" fill="#d6e6f3"/>
<path d="M125.621 594.162C129.803 599.474 130.411 605.927 126.985 608.659C123.559 611.39 117.384 609.269 113.293 603.937C109.111 598.625 108.503 592.172 111.929 589.44C115.355 586.708 121.53 588.83 125.621 594.162Z" fill="#d6e6f3"/>
<path d="M183.188 500.549C176.358 500.283 174.347 506.53 167.84 511.825C158.253 519.682 159.46 527.153 164.827 529.065C170.194 530.977 175.34 525.113 181.348 525.553C187.337 525.902 191.589 532.439 197.248 531.237C202.816 530.053 205.109 522.888 196.69 513.801C190.978 507.574 189.802 501.146 183.077 500.477L183.188 500.549Z" fill="#d6e6f3"/>
<path d="M167.172 494.317C170.513 499.713 170.496 505.917 166.954 508.101C163.411 510.285 157.889 507.643 154.456 502.267C151.115 496.872 151.132 490.667 154.675 488.483C158.217 486.299 163.74 488.941 167.172 494.317Z" fill="#d6e6f3"/>
<path d="M199.906 496.614C195.791 501.495 195.006 507.672 198.13 510.252C201.273 512.923 207.181 511.095 211.295 506.213C215.409 501.332 216.195 495.155 213.071 492.575C209.927 489.904 204.02 491.732 199.906 496.614Z" fill="#d6e6f3"/>
<path d="M182.677 482.436C183.435 489.143 180.467 494.926 176.19 495.453C171.895 495.889 167.771 490.851 167.104 484.124C166.346 477.416 169.315 471.634 173.61 471.198C177.906 470.761 182.03 475.8 182.697 482.527L182.677 482.436Z" fill="#d6e6f3"/>
<path d="M186.248 482.631C184.589 489.185 186.658 495.328 190.899 496.429C195.14 497.531 199.918 493.081 201.486 486.547C203.146 479.993 201.077 473.85 196.836 472.748C192.595 471.646 187.817 476.096 186.248 482.631Z" fill="#d6e6f3"/>
<path d="M98.3955 433.761C104.527 430.741 108.905 435.63 117.003 437.82C128.957 441.098 130.893 448.414 126.768 452.344C122.642 456.274 115.557 453.01 110.247 455.856C104.917 458.61 103.692 466.312 98.0333 467.515C92.4655 468.698 87.4563 463.085 91.4513 451.36C94.1367 443.348 92.5961 436.997 98.4673 433.651L98.3955 433.761Z" fill="#d6e6f3"/>
<path d="M110.512 421.646C109.654 427.934 112.193 433.595 116.318 434.149C120.442 434.704 124.413 430.044 125.362 423.736C126.219 417.448 123.68 411.787 119.556 411.233C115.431 410.678 111.461 415.338 110.512 421.646Z" fill="#d6e6f3"/>
<path d="M81.5424 437.057C87.2862 439.843 90.5165 445.166 88.7117 448.794C86.9263 452.512 80.7856 453.245 75.0418 450.459C69.298 447.673 66.0676 442.35 67.8724 438.722C69.6579 435.004 75.7985 434.271 81.5424 437.057Z" fill="#d6e6f3"/>
<path d="M91.4951 417.006C93.5309 423.442 98.5948 427.518 102.716 426.26C106.818 424.911 108.536 418.631 106.408 412.214C104.373 405.778 99.3088 401.703 95.2071 403.052C91.1053 404.401 89.3874 410.681 91.5145 417.097L91.4951 417.006Z" fill="#d6e6f3"/>
<path d="M88.3119 418.637C92.4938 423.949 93.1023 430.402 89.6761 433.134C86.2499 435.866 80.0748 433.744 75.9842 428.412C71.8022 423.1 71.1938 416.647 74.6199 413.915C78.0461 411.183 84.2212 413.305 88.3119 418.637Z" fill="#d6e6f3"/>
<path d="M145.879 325.024C139.049 324.758 137.038 331.005 130.531 336.3C120.944 344.157 122.151 351.628 127.518 353.54C132.885 355.452 138.031 349.588 144.039 350.028C150.028 350.377 154.279 356.915 159.939 355.712C165.507 354.528 167.799 347.363 159.381 338.277C153.669 332.049 152.493 325.621 145.768 324.952L145.879 325.024Z" fill="#d6e6f3"/>
<path d="M129.863 318.793C133.204 324.188 133.187 330.393 129.645 332.577C126.102 334.761 120.58 332.119 117.147 326.742C113.806 321.347 113.823 315.142 117.366 312.958C120.908 310.774 126.431 313.417 129.863 318.793Z" fill="#d6e6f3"/>
<path d="M162.596 321.089C158.482 325.97 157.696 332.147 160.821 334.727C163.964 337.398 169.872 335.57 173.986 330.688C178.1 325.807 178.886 319.63 175.762 317.05C172.618 314.379 166.71 316.208 162.596 321.089Z" fill="#d6e6f3"/>
<path d="M145.368 306.911C146.126 313.618 143.158 319.401 138.881 319.928C134.586 320.364 130.462 315.326 129.795 308.599C129.037 301.891 132.006 296.109 136.301 295.673C140.597 295.237 144.721 300.275 145.388 307.002L145.368 306.911Z" fill="#d6e6f3"/>
<path d="M148.939 307.106C147.28 313.66 149.349 319.803 153.59 320.905C157.831 322.006 162.609 317.556 164.177 311.022C165.837 304.468 163.768 298.325 159.527 297.223C155.286 296.121 150.508 300.571 148.939 307.106Z" fill="#d6e6f3"/>
<path d="M61.0864 258.236C67.2179 255.215 71.5961 260.104 79.6937 262.294C91.6478 265.573 93.5844 272.889 89.4589 276.818C85.3333 280.748 78.2477 277.484 72.9378 280.33C67.6084 283.085 66.3835 290.786 60.7243 291.989C55.1564 293.173 50.1472 287.559 54.1423 275.835C56.8277 267.823 55.2871 261.472 61.1583 258.125L61.0864 258.236Z" fill="#d6e6f3"/>
<path d="M73.203 246.12C72.3453 252.408 74.8843 258.07 79.009 258.624C83.1336 259.178 87.1039 254.518 88.0529 248.211C88.9106 241.923 86.3716 236.261 82.2469 235.707C78.1223 235.153 74.152 239.813 73.203 246.12Z" fill="#d6e6f3"/>
<path d="M44.2333 261.532C49.9771 264.318 53.2075 269.641 51.4027 273.268C49.6173 276.987 43.4766 277.72 37.7328 274.934C31.989 272.148 28.7586 266.824 30.5634 263.197C32.3489 259.479 38.4895 258.746 44.2333 261.532Z" fill="#d6e6f3"/>
<path d="M54.1861 241.481C56.2219 247.917 61.2858 251.992 65.4069 250.735C69.5086 249.386 71.2266 243.106 69.0994 236.689C67.0636 230.253 61.9998 226.178 57.898 227.527C53.7963 228.876 52.0784 235.156 54.2055 241.572L54.1861 241.481Z" fill="#d6e6f3"/>
<path d="M51.0029 243.112C55.1848 248.424 55.7933 254.877 52.3671 257.609C48.941 260.34 42.7659 258.218 38.6752 252.887C34.4933 247.575 33.8848 241.121 37.311 238.39C40.7372 235.658 46.9122 237.78 51.0029 243.112Z" fill="#d6e6f3"/>
<path d="M108.57 149.498C101.74 149.233 99.7291 155.48 93.2224 160.774C83.6352 168.631 84.8417 176.103 90.2089 178.015C95.5761 179.926 100.722 174.063 106.73 174.503C112.719 174.852 116.971 181.389 122.63 180.186C128.198 179.003 130.491 171.837 122.072 162.751C116.36 156.524 115.184 150.096 108.459 149.426L108.57 149.498Z" fill="#d6e6f3"/>
<path d="M92.554 143.267C95.8951 148.663 95.8783 154.867 92.3357 157.051C88.7931 159.235 83.2707 156.593 79.8383 151.217C76.4973 145.822 76.514 139.617 80.0566 137.433C83.5992 135.249 89.1217 137.891 92.554 143.267Z" fill="#d6e6f3"/>
<path d="M125.287 145.563C121.173 150.445 120.388 156.622 123.512 159.201C126.655 161.872 132.563 160.044 136.677 155.163C140.791 150.281 141.577 144.104 138.453 141.525C135.309 138.854 129.402 140.682 125.287 145.563Z" fill="#d6e6f3"/>
<path d="M108.04 131.294C108.798 138.002 105.829 143.785 101.553 144.312C97.257 144.748 93.1333 139.71 92.4666 132.983C91.7086 126.275 94.6771 120.492 98.9729 120.056C103.269 119.62 107.392 124.658 108.059 131.386L108.04 131.294Z" fill="#d6e6f3"/>
<path d="M111.63 131.58C109.971 138.134 112.039 144.277 116.281 145.379C120.522 146.481 125.3 142.031 126.868 135.497C128.528 128.943 126.459 122.8 122.218 121.698C117.977 120.596 113.199 125.046 111.63 131.58Z" fill="#d6e6f3"/>
<path d="M23.7774 82.7105C29.9088 79.69 34.287 84.5788 42.3846 86.769C54.3388 90.0475 56.2754 97.3633 52.1498 101.293C48.0243 105.223 40.9387 101.959 35.6288 104.805C30.2994 107.559 29.0744 115.261 23.4153 116.464C17.8474 117.647 12.8382 112.034 16.8333 100.309C19.5187 92.2971 17.978 85.9465 23.8493 82.5998L23.7774 82.7105Z" fill="#d6e6f3"/>
<path d="M35.8746 70.5035C35.0169 76.7915 37.5559 82.4529 41.6805 83.0072C45.8052 83.5614 49.7755 78.9015 50.7245 72.5941C51.5821 66.3062 49.0431 60.6449 44.9185 60.0906C40.7939 59.5363 36.8235 64.1962 35.8746 70.5035Z" fill="#d6e6f3"/>
<path d="M6.92432 86.0063C12.6681 88.7923 15.8985 94.1159 14.0937 97.7431C12.3082 101.462 6.16757 102.194 0.423762 99.4085C-5.32004 96.6226 -8.55042 91.299 -6.7456 87.6717C-4.96018 83.9532 1.18051 83.2204 6.92432 86.0063Z" fill="#d6e6f3"/>
<path d="M16.877 65.9557C18.9129 72.3918 23.9767 76.4671 28.0979 75.2095C32.1996 73.8606 33.9175 67.5807 31.7904 61.164C29.7546 54.7278 24.6907 50.6525 20.589 52.0014C16.4873 53.3502 14.7693 59.6303 16.8965 66.047L16.877 65.9557Z" fill="#d6e6f3"/>
<path d="M13.6939 67.5862C17.8758 72.8983 18.4843 79.3516 15.0581 82.0833C11.6319 84.815 5.45686 82.6931 1.36619 77.3616C-2.81576 72.0494 -3.42423 65.5961 0.00196081 62.8644C3.42815 60.1328 9.6032 62.2546 13.6939 67.5862Z" fill="#d6e6f3"/>
<path d="M1270.1 662.41C1263.25 662.144 1261.23 668.41 1254.7 673.721C1245.09 681.602 1246.3 689.096 1251.68 691.014C1257.06 692.932 1262.22 687.05 1268.25 687.492C1274.26 687.842 1278.52 694.399 1284.2 693.193C1289.78 692.006 1292.08 684.818 1283.64 675.704C1277.91 669.458 1276.73 663.01 1269.99 662.338L1270.1 662.41Z" fill="#d6e6f3"/>
<path d="M1254.03 656.16C1257.38 661.572 1257.37 667.796 1253.81 669.986C1250.26 672.177 1244.72 669.527 1241.28 664.134C1237.93 658.722 1237.94 652.498 1241.5 650.308C1245.05 648.117 1250.59 650.767 1254.03 656.16Z" fill="#d6e6f3"/>
<path d="M1286.88 658.555C1282.76 663.451 1281.97 669.647 1285.1 672.235C1288.26 674.914 1294.18 673.08 1298.31 668.184C1302.44 663.287 1303.22 657.091 1300.09 654.504C1296.94 651.824 1291.01 653.658 1286.88 658.555Z" fill="#d6e6f3"/>
<path d="M1269.58 644.242C1270.34 650.97 1267.37 656.77 1263.08 657.299C1258.77 657.737 1254.63 652.683 1253.96 645.935C1253.2 639.207 1256.18 633.406 1260.49 632.969C1264.8 632.531 1268.93 637.585 1269.6 644.333L1269.58 644.242Z" fill="#d6e6f3"/>
<path d="M1273.17 644.437C1271.5 651.011 1273.58 657.173 1277.83 658.278C1282.09 659.383 1286.88 654.92 1288.45 648.365C1290.12 641.791 1288.04 635.629 1283.79 634.524C1279.53 633.419 1274.74 637.882 1273.17 644.437Z" fill="#d6e6f3"/>
<path d="M1185.04 595.417C1191.19 592.387 1195.59 597.291 1203.71 599.488C1215.7 602.776 1217.64 610.115 1213.5 614.056C1209.36 617.998 1202.26 614.724 1196.93 617.579C1191.59 620.342 1190.36 628.067 1184.68 629.274C1179.09 630.461 1174.07 624.831 1178.08 613.07C1180.77 605.033 1179.23 598.663 1185.12 595.306L1185.04 595.417Z" fill="#d6e6f3"/>
<path d="M1197.2 583.264C1196.34 589.571 1198.88 595.25 1203.02 595.806C1207.16 596.362 1211.14 591.688 1212.09 585.361C1212.95 579.054 1210.41 573.375 1206.27 572.819C1202.13 572.263 1198.15 576.937 1197.2 583.264Z" fill="#d6e6f3"/>
<path d="M1168.14 598.723C1173.9 601.517 1177.14 606.857 1175.33 610.496C1173.54 614.226 1167.38 614.961 1161.62 612.166C1155.86 609.372 1152.62 604.032 1154.43 600.393C1156.22 596.663 1162.38 595.928 1168.14 598.723Z" fill="#d6e6f3"/>
<path d="M1178.12 578.61C1180.16 585.066 1185.24 589.154 1189.38 587.893C1193.49 586.54 1195.21 580.24 1193.08 573.804C1191.04 567.348 1185.96 563.26 1181.84 564.613C1177.73 565.966 1176.01 572.265 1178.14 578.702L1178.12 578.61Z" fill="#d6e6f3"/>
<path d="M1174.93 580.246C1179.12 585.574 1179.73 592.047 1176.3 594.788C1172.86 597.528 1166.67 595.399 1162.56 590.051C1158.37 584.723 1157.76 578.25 1161.19 575.51C1164.63 572.769 1170.83 574.898 1174.93 580.246Z" fill="#d6e6f3"/>
<path d="M1232.67 486.345C1225.82 486.078 1223.8 492.344 1217.28 497.655C1207.66 505.537 1208.87 513.031 1214.26 514.949C1219.64 516.866 1224.8 510.985 1230.83 511.426C1236.83 511.776 1241.1 518.334 1246.78 517.127C1252.36 515.94 1254.66 508.752 1246.22 499.638C1240.49 493.392 1239.31 486.944 1232.56 486.272L1232.67 486.345Z" fill="#d6e6f3"/>
<path d="M1216.61 480.094C1219.96 485.506 1219.94 491.73 1216.39 493.921C1212.83 496.111 1207.3 493.461 1203.85 488.069C1200.5 482.656 1200.52 476.433 1204.07 474.242C1207.63 472.051 1213.16 474.702 1216.61 480.094Z" fill="#d6e6f3"/>
<path d="M1249.44 482.397C1245.31 487.294 1244.53 493.49 1247.66 496.078C1250.81 498.757 1256.74 496.923 1260.87 492.026C1264.99 487.13 1265.78 480.934 1262.65 478.346C1259.49 475.667 1253.57 477.501 1249.44 482.397Z" fill="#d6e6f3"/>
<path d="M1232.16 468.176C1232.92 474.904 1229.94 480.705 1225.65 481.234C1221.34 481.671 1217.21 476.617 1216.54 469.869C1215.78 463.141 1218.76 457.341 1223.07 456.903C1227.37 456.466 1231.51 461.52 1232.18 468.267L1232.16 468.176Z" fill="#d6e6f3"/>
<path d="M1235.74 468.371C1234.08 474.945 1236.15 481.107 1240.41 482.212C1244.66 483.318 1249.45 478.854 1251.03 472.299C1252.69 465.725 1250.62 459.564 1246.36 458.458C1242.11 457.353 1237.32 461.817 1235.74 468.371Z" fill="#d6e6f3"/>
<path d="M1147.62 419.351C1153.77 416.321 1158.16 421.225 1166.28 423.422C1178.27 426.711 1180.22 434.049 1176.08 437.991C1171.94 441.933 1164.83 438.659 1159.51 441.513C1154.16 444.276 1152.93 452.002 1147.26 453.208C1141.67 454.395 1136.65 448.765 1140.65 437.004C1143.35 428.967 1141.8 422.597 1147.69 419.24L1147.62 419.351Z" fill="#d6e6f3"/>
<path d="M1159.77 407.198C1158.91 413.505 1161.46 419.184 1165.6 419.74C1169.73 420.296 1173.72 415.622 1174.67 409.295C1175.53 402.988 1172.98 397.309 1168.84 396.753C1164.71 396.197 1160.72 400.871 1159.77 407.198Z" fill="#d6e6f3"/>
<path d="M1130.71 422.657C1136.48 425.451 1139.72 430.791 1137.91 434.43C1136.11 438.16 1129.96 438.895 1124.19 436.1C1118.43 433.306 1115.19 427.966 1117 424.327C1118.79 420.598 1124.95 419.862 1130.71 422.657Z" fill="#d6e6f3"/>
<path d="M1140.7 402.544C1142.74 409 1147.82 413.088 1151.95 411.827C1156.07 410.474 1157.79 404.174 1155.66 397.738C1153.61 391.282 1148.54 387.194 1144.42 388.547C1140.31 389.9 1138.58 396.199 1140.72 402.636L1140.7 402.544Z" fill="#d6e6f3"/>
<path d="M1137.5 404.18C1141.7 409.508 1142.31 415.982 1138.87 418.722C1135.44 421.462 1129.24 419.333 1125.14 413.985C1120.94 408.657 1120.33 402.184 1123.77 399.444C1127.21 396.704 1133.4 398.832 1137.5 404.18Z" fill="#d6e6f3"/>
<path d="M1195.25 310.279C1188.4 310.012 1186.38 316.278 1179.85 321.589C1170.24 329.471 1171.45 336.965 1176.83 338.883C1182.22 340.8 1187.38 334.919 1193.4 335.36C1199.41 335.71 1203.68 342.268 1209.35 341.061C1214.94 339.874 1217.24 332.686 1208.79 323.572C1203.06 317.326 1201.88 310.878 1195.14 310.207L1195.25 310.279Z" fill="#d6e6f3"/>
<path d="M1179.18 304.028C1182.53 309.44 1182.52 315.664 1178.96 317.855C1175.41 320.046 1169.87 317.395 1166.43 312.003C1163.08 306.59 1163.09 300.367 1166.65 298.176C1170.2 295.985 1175.74 298.636 1179.18 304.028Z" fill="#d6e6f3"/>
<path d="M1212.02 306.331C1207.89 311.228 1207.1 317.424 1210.24 320.012C1213.39 322.691 1219.32 320.857 1223.44 315.961C1227.57 311.064 1228.36 304.868 1225.22 302.28C1222.07 299.601 1216.14 301.435 1212.02 306.331Z" fill="#d6e6f3"/>
<path d="M1194.74 292.11C1195.5 298.838 1192.52 304.639 1188.23 305.168C1183.92 305.605 1179.78 300.551 1179.12 293.803C1178.36 287.075 1181.33 281.275 1185.64 280.837C1189.95 280.4 1194.09 285.454 1194.76 292.201L1194.74 292.11Z" fill="#d6e6f3"/>
<path d="M1198.32 292.305C1196.65 298.879 1198.73 305.041 1202.98 306.146C1207.24 307.252 1212.03 302.788 1213.6 296.234C1215.27 289.659 1213.19 283.498 1208.94 282.392C1204.69 281.287 1199.89 285.751 1198.32 292.305Z" fill="#d6e6f3"/>
<path d="M1110.2 243.285C1116.35 240.255 1120.74 245.159 1128.86 247.356C1140.85 250.645 1142.79 257.983 1138.66 261.925C1134.52 265.867 1127.41 262.593 1122.08 265.447C1116.74 268.21 1115.51 275.936 1109.83 277.142C1104.25 278.33 1099.22 272.699 1103.23 260.938C1105.92 252.901 1104.38 246.531 1110.27 243.174L1110.2 243.285Z" fill="#d6e6f3"/>
<path d="M1122.35 231.132C1121.49 237.439 1124.04 243.118 1128.17 243.674C1132.31 244.23 1136.29 239.556 1137.24 233.229C1138.11 226.922 1135.56 221.243 1131.42 220.687C1127.28 220.131 1123.3 224.805 1122.35 231.132Z" fill="#d6e6f3"/>
<path d="M1093.29 246.591C1099.05 249.386 1102.29 254.726 1100.48 258.364C1098.69 262.094 1092.53 262.829 1086.77 260.035C1081.01 257.24 1077.77 251.9 1079.58 248.262C1081.37 244.532 1087.53 243.797 1093.29 246.591Z" fill="#d6e6f3"/>
<path d="M1103.27 226.479C1105.32 232.935 1110.4 237.022 1114.53 235.761C1118.64 234.408 1120.37 228.109 1118.23 221.672C1116.19 215.216 1111.11 211.128 1107 212.481C1102.88 213.834 1101.16 220.134 1103.29 226.57L1103.27 226.479Z" fill="#d6e6f3"/>
<path d="M1100.08 228.114C1104.28 233.443 1104.89 239.916 1101.45 242.656C1098.01 245.396 1091.82 243.268 1087.72 237.92C1083.52 232.591 1082.91 226.118 1086.35 223.378C1089.78 220.638 1095.98 222.766 1100.08 228.114Z" fill="#d6e6f3"/>
<path d="M1157.83 134.213C1150.97 133.947 1148.96 140.213 1142.43 145.524C1132.81 153.405 1134.02 160.899 1139.41 162.817C1144.79 164.735 1149.95 158.853 1155.98 159.295C1161.99 159.645 1166.25 166.202 1171.93 164.996C1177.51 163.809 1179.81 156.621 1171.37 147.507C1165.64 141.261 1164.46 134.813 1157.71 134.141L1157.83 134.213Z" fill="#d6e6f3"/>
<path d="M1141.76 127.963C1145.11 133.375 1145.09 139.599 1141.54 141.789C1137.99 143.98 1132.45 141.33 1129 135.937C1125.65 130.525 1125.67 124.301 1129.22 122.111C1132.78 119.92 1138.32 122.57 1141.76 127.963Z" fill="#d6e6f3"/>
<path d="M1174.59 130.266C1170.47 135.162 1169.68 141.359 1172.81 143.946C1175.97 146.625 1181.89 144.791 1186.02 139.895C1190.15 134.999 1190.93 128.803 1187.8 126.215C1184.65 123.536 1178.72 125.37 1174.59 130.266Z" fill="#d6e6f3"/>
<path d="M1157.29 115.953C1158.05 122.681 1155.08 128.482 1150.79 129.011C1146.48 129.448 1142.34 124.394 1141.67 117.647C1140.91 110.918 1143.89 105.118 1148.2 104.68C1152.51 104.243 1156.64 109.297 1157.31 116.045L1157.29 115.953Z" fill="#d6e6f3"/>
<path d="M1160.89 116.24C1159.23 122.814 1161.31 128.976 1165.56 130.081C1169.81 131.186 1174.61 126.723 1176.18 120.168C1177.84 113.594 1175.77 107.432 1171.52 106.327C1167.26 105.222 1162.47 109.685 1160.89 116.24Z" fill="#d6e6f3"/>
<path d="M1072.77 67.2196C1078.92 64.1898 1083.31 69.0937 1091.44 71.2906C1103.43 74.5792 1105.37 81.9176 1101.23 85.8594C1097.09 89.8013 1089.99 86.5273 1084.66 89.3819C1079.31 92.145 1078.08 99.8703 1072.41 101.077C1066.82 102.264 1061.8 96.6335 1065.81 84.8725C1068.5 76.8358 1066.95 70.4657 1072.84 67.1086L1072.77 67.2196Z" fill="#d6e6f3"/>
<path d="M1084.91 54.9749C1084.05 61.2822 1086.59 66.9611 1090.73 67.5171C1094.87 68.0731 1098.85 63.3987 1099.8 57.072C1100.66 50.7647 1098.11 45.0859 1093.98 44.5299C1089.84 43.9739 1085.86 48.6482 1084.91 54.9749Z" fill="#d6e6f3"/>
<path d="M1055.87 70.5256C1061.63 73.3201 1064.87 78.6601 1063.06 82.2985C1061.27 86.0285 1055.11 86.7636 1049.35 83.9691C1043.58 81.1745 1040.34 75.8345 1042.15 72.1961C1043.95 68.4661 1050.1 67.7311 1055.87 70.5256Z" fill="#d6e6f3"/>
<path d="M1065.85 50.4132C1067.89 56.8691 1072.97 60.957 1077.11 59.6955C1081.22 58.3425 1082.94 52.0432 1080.81 45.6067C1078.77 39.1508 1073.69 35.0629 1069.57 36.4159C1065.46 37.7689 1063.74 44.0683 1065.87 50.5048L1065.85 50.4132Z" fill="#d6e6f3"/>
<path d="M1062.66 52.0488C1066.85 57.3773 1067.46 63.8505 1064.03 66.5906C1060.59 69.3306 1054.39 67.2022 1050.29 61.8543C1046.1 56.5258 1045.49 50.0526 1048.92 47.3125C1052.36 44.5724 1058.55 46.7008 1062.66 52.0488Z" fill="#d6e6f3"/>
</g>
<defs>
<clipPath id="clip0_236_216">
<rect width="1280" height="720" fill="white"/>
</clipPath>
</defs>
</svg>
