<svg width="735" height="143" viewBox="0 0 735 143" fill="none" xmlns="http://www.w3.org/2000/svg">
<path d="M35.5 108.6C37.3 101.5 31.2 98 27.1 90C21 78.2 12.9 77.8 9.70001 83C6.50001 88.2 11.5 94.9 9.70001 101.1C8.00001 107.3 0.200012 110.3 0.200012 116.5C0.200012 122.6 7.20001 126.6 18.6 119.8C26.4 115.2 33.4 115.4 35.6 108.5L35.5 108.6Z" fill="#47A3EE"/>
<path d="M45.6 93.2C39.2 95.5 32.7 94.1 31.2 89.9C29.7 85.7 33.7 80.5 40.1 78.1C46.5 75.8 53 77.2 54.5 81.4C56 85.6 52 90.8 45.6 93.2Z" fill="#47A3EE"/>
<path d="M35.8 127C31.6 121.6 25.3 119.4 21.9 122.1C18.4 124.8 19 131.4 23.2 136.8C27.4 142.2 33.7 144.4 37.1 141.7C40.6 139 40 132.4 35.8 127Z" fill="#47A3EE"/>
<path d="M54.6 112.1C47.4 111.4 42 107 42.4 102.4C42.9 97.8 49.1 94.6 56.3 95.4C63.5 96.1 68.9 100.5 68.4 105.1C67.9 109.7 61.7 112.9 54.5 112.1H54.6Z" fill="#47A3EE"/>
<path d="M53.6 115.8C47.1 112.6 40.2 113.4 38.1 117.6C36 121.8 39.6 127.8 46.1 130.9C52.6 134.1 59.5 133.3 61.6 129.1C63.7 124.9 60.1 118.9 53.6 115.8Z" fill="#47A3EE"/>
<path d="M124.4 34.6001C126.2 41.7001 120.1 45.2001 116 53.2001C109.9 65.0001 101.8 65.4001 98.6 60.2001C95.4 55.0001 100.4 48.3001 98.6 42.1001C96.9 35.9001 89.1 32.9001 89.1 26.7001C89.1 20.6001 96.1 16.6 107.5 23.4C115.3 28 122.3 27.8001 124.5 34.7001L124.4 34.6001Z" fill="#47A3EE"/>
<path d="M134.4 50C128 47.7 121.5 49.1 120 53.3C118.5 57.5 122.5 62.7 128.9 65.1C135.3 67.4 141.8 66 143.3 61.8C144.8 57.6 140.8 52.4 134.4 50Z" fill="#47A3EE"/>
<path d="M124.7 16.2C120.5 21.6 114.2 23.8 110.8 21.1C107.3 18.4 107.9 11.8 112.1 6.40001C116.3 1.00001 122.6 -1.19998 126 1.50002C129.5 4.20002 128.9 10.8 124.7 16.2Z" fill="#47A3EE"/>
<path d="M143.5 31.1C136.3 31.8 130.9 36.2 131.3 40.8C131.8 45.4 138 48.6 145.2 47.8C152.4 47.1 157.8 42.7 157.3 38.1C156.8 33.5 150.6 30.3 143.4 31.1H143.5Z" fill="#47A3EE"/>
<path d="M142.5 27.4001C136 30.6001 129.1 29.8001 127 25.6001C124.9 21.4001 128.5 15.4001 135 12.3001C141.5 9.10008 148.4 9.90009 150.5 14.1001C152.6 18.3001 149 24.3001 142.5 27.4001Z" fill="#47A3EE"/>
<path d="M227.8 108.6C229.6 101.5 223.5 98 219.4 90C213.3 78.2 205.2 77.8 202 83C198.8 88.2 203.8 94.9 202 101.1C200.3 107.3 192.5 110.3 192.5 116.5C192.5 122.6 199.5 126.6 210.9 119.8C218.7 115.2 225.7 115.4 227.9 108.5L227.8 108.6Z" fill="#47A3EE"/>
<path d="M237.9 93.2C231.5 95.5 225 94.1 223.5 89.9C222 85.7 226 80.5 232.4 78.1C238.8 75.8 245.3 77.2 246.8 81.4C248.3 85.6 244.3 90.8 237.9 93.2Z" fill="#47A3EE"/>
<path d="M228.2 127C224 121.6 217.7 119.4 214.3 122.1C210.8 124.8 211.4 131.4 215.6 136.8C219.8 142.2 226.1 144.4 229.5 141.7C233 139 232.4 132.4 228.2 127Z" fill="#47A3EE"/>
<path d="M246.9 112.1C239.7 111.4 234.3 107 234.7 102.4C235.2 97.8 241.4 94.6 248.6 95.4C255.8 96.1 261.2 100.5 260.7 105.1C260.2 109.7 254 112.9 246.8 112.1H246.9Z" fill="#47A3EE"/>
<path d="M245.9 115.8C239.4 112.6 232.5 113.4 230.4 117.6C228.3 121.8 231.9 127.8 238.4 130.9C244.9 134.1 251.8 133.3 253.9 129.1C256 124.9 252.4 118.9 245.9 115.8Z" fill="#47A3EE"/>
<path d="M316.7 34.6001C318.5 41.7001 312.4 45.2001 308.3 53.2001C302.2 65.0001 294.1 65.4001 290.9 60.2001C287.7 55.0001 292.7 48.3001 290.9 42.1001C289.2 35.9001 281.4 32.9001 281.4 26.7001C281.4 20.6001 288.4 16.6 299.8 23.4C307.6 28 314.6 27.8001 316.8 34.7001L316.7 34.6001Z" fill="#47A3EE"/>
<path d="M326.7 50C320.3 47.7 313.8 49.1 312.3 53.3C310.8 57.5 314.8 62.7 321.2 65.1C327.6 67.4 334.1 66 335.6 61.8C337.1 57.6 333.1 52.4 326.7 50Z" fill="#47A3EE"/>
<path d="M317 16.2C312.8 21.6 306.5 23.8 303.1 21.1C299.6 18.4 300.2 11.8 304.4 6.40001C308.6 1.00001 314.9 -1.19998 318.3 1.50002C321.8 4.20002 321.2 10.8 317 16.2Z" fill="#47A3EE"/>
<path d="M335.8 31.1C328.6 31.8 323.2 36.2 323.6 40.8C324.1 45.4 330.3 48.6 337.5 47.8C344.7 47.1 350.1 42.7 349.6 38.1C349.1 33.5 342.9 30.3 335.7 31.1H335.8Z" fill="#47A3EE"/>
<path d="M334.8 27.4001C328.3 30.6001 321.4 29.8001 319.3 25.6001C317.2 21.4001 320.8 15.4001 327.3 12.3001C333.8 9.10008 340.7 9.90009 342.8 14.1001C344.9 18.3001 341.3 24.3001 334.8 27.4001Z" fill="#47A3EE"/>
<path d="M420.1 108.6C421.9 101.5 415.8 98 411.7 90C405.6 78.2 397.5 77.8 394.3 83C391.1 88.2 396.1 94.9 394.3 101.1C392.6 107.3 384.8 110.3 384.8 116.5C384.8 122.6 391.8 126.6 403.2 119.8C411 115.2 418 115.4 420.2 108.5L420.1 108.6Z" fill="#47A3EE"/>
<path d="M430.2 93.2C423.8 95.5 417.3 94.1 415.8 89.9C414.3 85.7 418.3 80.5 424.7 78.1C431.1 75.8 437.6 77.2 439.1 81.4C440.6 85.6 436.6 90.8 430.2 93.2Z" fill="#47A3EE"/>
<path d="M420.5 127C416.3 121.6 410 119.4 406.6 122.1C403.1 124.8 403.7 131.4 407.9 136.8C412.1 142.2 418.4 144.4 421.8 141.7C425.3 139 424.7 132.4 420.5 127Z" fill="#47A3EE"/>
<path d="M439.2 112.1C432 111.4 426.6 107 427 102.4C427.5 97.8 433.7 94.6 440.9 95.4C448.1 96.1 453.5 100.5 453 105.1C452.5 109.7 446.3 112.9 439.1 112.1H439.2Z" fill="#47A3EE"/>
<path d="M438.2 115.8C431.7 112.6 424.8 113.4 422.7 117.6C420.6 121.8 424.2 127.8 430.7 130.9C437.2 134.1 444.1 133.3 446.2 129.1C448.3 124.9 444.7 118.9 438.2 115.8Z" fill="#47A3EE"/>
<path d="M509 34.6001C510.8 41.7001 504.7 45.2001 500.6 53.2001C494.5 65.0001 486.4 65.4001 483.2 60.2001C480 55.0001 485 48.3001 483.2 42.1001C481.5 35.9001 473.7 32.9001 473.7 26.7001C473.7 20.6001 480.7 16.6 492.1 23.4C499.9 28 506.9 27.8001 509.1 34.7001L509 34.6001Z" fill="#47A3EE"/>
<path d="M519 50C512.6 47.7 506.1 49.1 504.6 53.3C503.1 57.5 507.1 62.7 513.5 65.1C519.9 67.4 526.4 66 527.9 61.8C529.4 57.6 525.4 52.4 519 50Z" fill="#47A3EE"/>
<path d="M509.3 16.2C505.1 21.6 498.8 23.8 495.4 21.1C491.9 18.4 492.5 11.8 496.7 6.40001C500.9 1.00001 507.2 -1.19998 510.6 1.50002C514.1 4.20002 513.5 10.8 509.3 16.2Z" fill="#47A3EE"/>
<path d="M528.1 31.1C520.9 31.8 515.5 36.2 515.9 40.8C516.4 45.4 522.6 48.6 529.8 47.8C537 47.1 542.4 42.7 541.9 38.1C541.4 33.5 535.2 30.3 528 31.1H528.1Z" fill="#47A3EE"/>
<path d="M527.1 27.4001C520.6 30.6001 513.7 29.8001 511.6 25.6001C509.5 21.4001 513.1 15.4001 519.6 12.3001C526.1 9.10008 533 9.90009 535.1 14.1001C537.2 18.3001 533.6 24.3001 527.1 27.4001Z" fill="#47A3EE"/>
<path d="M612.4 108.6C614.2 101.5 608.1 98 604 90C597.9 78.2 589.8 77.8 586.6 83C583.4 88.2 588.4 94.9 586.6 101.1C584.9 107.3 577.1 110.3 577.1 116.5C577.1 122.6 584.1 126.6 595.5 119.8C603.3 115.2 610.3 115.4 612.5 108.5L612.4 108.6Z" fill="#47A3EE"/>
<path d="M622.5 93.2C616.1 95.5 609.6 94.1 608.1 89.9C606.6 85.7 610.6 80.5 617 78.1C623.4 75.8 629.9 77.2 631.4 81.4C632.9 85.6 628.9 90.8 622.5 93.2Z" fill="#47A3EE"/>
<path d="M612.8 127C608.6 121.6 602.3 119.4 598.9 122.1C595.4 124.8 596 131.4 600.2 136.8C604.4 142.2 610.7 144.4 614.1 141.7C617.6 139 617 132.4 612.8 127Z" fill="#47A3EE"/>
<path d="M631.6 112.1C624.4 111.4 619 107 619.4 102.4C619.9 97.8 626.1 94.6 633.3 95.4C640.5 96.1 645.9 100.5 645.4 105.1C644.9 109.7 638.7 112.9 631.5 112.1H631.6Z" fill="#47A3EE"/>
<path d="M630.5 115.8C624 112.6 617.1 113.4 615 117.6C612.9 121.8 616.5 127.8 623 130.9C629.5 134.1 636.4 133.3 638.5 129.1C640.6 124.9 637 118.9 630.5 115.8Z" fill="#47A3EE"/>
<path d="M701.3 34.6001C703.1 41.7001 697 45.2001 692.9 53.2001C686.8 65.0001 678.7 65.4001 675.5 60.2001C672.3 55.0001 677.3 48.3001 675.5 42.1001C673.8 35.9001 666 32.9001 666 26.7001C666 20.6001 673 16.6 684.4 23.4C692.2 28 699.2 27.8001 701.4 34.7001L701.3 34.6001Z" fill="#47A3EE"/>
<path d="M711.4 50C705 47.7 698.5 49.1 697 53.3C695.5 57.5 699.5 62.7 705.9 65.1C712.3 67.4 718.8 66 720.3 61.8C721.8 57.6 717.8 52.4 711.4 50Z" fill="#47A3EE"/>
<path d="M701.6 16.2C697.4 21.6 691.1 23.8 687.7 21.1C684.2 18.4 684.8 11.8 689 6.40001C693.2 1.00001 699.5 -1.19998 702.9 1.50002C706.4 4.20002 705.8 10.8 701.6 16.2Z" fill="#47A3EE"/>
<path d="M720.4 31.1C713.2 31.8 707.8 36.2 708.2 40.8C708.7 45.4 714.9 48.6 722.1 47.8C729.3 47.1 734.7 42.7 734.2 38.1C733.7 33.5 727.5 30.3 720.3 31.1H720.4Z" fill="#47A3EE"/>
<path d="M719.4 27.4001C712.9 30.6001 706 29.8001 703.9 25.6001C701.8 21.4001 705.4 15.4001 711.9 12.3001C718.4 9.10008 725.3 9.90009 727.4 14.1001C729.5 18.3001 725.9 24.3001 719.4 27.4001Z" fill="#47A3EE"/>
</svg>
