<?xml version="1.0" encoding="UTF-8"?>
<svg xmlns="http://www.w3.org/2000/svg" version="1.1" viewBox="0 0 800 800">
  <defs>
    <style>
      .cls-1 {
        fill: #47a3ee;
      }
    </style>
  </defs>
  <!-- Generator: Adobe Illustrator 28.6.0, SVG Export Plug-In . SVG Version: 1.2.0 Build 709)  -->
  <g>
    <g id="Vrstva_1">
      <g>
        <path class="cls-1" d="M74.5,401.6c1.8-7.1-4.3-10.6-8.4-18.6-6.1-11.8-14.2-12.2-17.4-7-3.2,5.2,1.8,11.9,0,18.1,0,0,0,0,0,0,0,0,0,0,0,0-1.7,6.2-9.5,9.2-9.5,15.4,0,6.1,7,10.1,18.4,3.3,7.8-4.6,14.8-4.4,17-11.3Z"/>
        <path class="cls-1" d="M84.6,386.2c-6.4,2.3-12.9.9-14.4-3.3-1.5-4.2,2.5-9.4,8.9-11.8,6.4-2.3,12.9-.9,14.4,3.3,1.5,4.2-2.5,9.4-8.9,11.8Z"/>
        <path class="cls-1" d="M74.8,420c-4.2-5.4-10.5-7.6-13.9-4.9-3.5,2.7-2.9,9.3,1.3,14.7,4.2,5.4,10.5,7.6,13.9,4.9,3.5-2.7,2.9-9.3-1.3-14.7Z"/>
        <path class="cls-1" d="M93.6,405.1c-7.2-.7-12.6-5.1-12.2-9.7.5-4.6,6.7-7.8,13.9-7,7.2.7,12.6,5.1,12.1,9.7-.5,4.6-6.7,7.8-13.9,7Z"/>
        <path class="cls-1" d="M92.6,408.8c-6.5-3.2-13.4-2.4-15.5,1.8-2.1,4.2,1.5,10.2,8,13.3,6.5,3.2,13.4,2.4,15.5-1.8,2.1-4.2-1.5-10.2-8-13.3Z"/>
      </g>
      <g>
        <path class="cls-1" d="M163.4,327.6c1.8,7.1-4.3,10.6-8.4,18.6-6.1,11.8-14.2,12.2-17.4,7-3.2-5.2,1.8-11.9,0-18.1,0,0,0,0,0,0,0,0,0,0,0,0-1.7-6.2-9.5-9.2-9.5-15.4,0-6.1,7-10.1,18.4-3.3,7.8,4.6,14.8,4.4,17,11.3Z"/>
        <path class="cls-1" d="M173.4,343c-6.4-2.3-12.9-.9-14.4,3.3-1.5,4.2,2.5,9.4,8.9,11.8,6.4,2.3,12.9.9,14.4-3.3,1.5-4.2-2.5-9.4-8.9-11.8Z"/>
        <path class="cls-1" d="M163.7,309.2c-4.2,5.4-10.5,7.6-13.9,4.9-3.5-2.7-2.9-9.3,1.3-14.7,4.2-5.4,10.5-7.6,13.9-4.9,3.5,2.7,2.9,9.3-1.3,14.7Z"/>
        <path class="cls-1" d="M182.5,324.1c-7.2.7-12.6,5.1-12.2,9.7.5,4.6,6.7,7.8,13.9,7,7.2-.7,12.6-5.1,12.1-9.7-.5-4.6-6.7-7.8-13.9-7Z"/>
        <path class="cls-1" d="M181.5,320.4c-6.5,3.2-13.4,2.4-15.5-1.8-2.1-4.2,1.5-10.2,8-13.3,6.5-3.2,13.4-2.4,15.5,1.8,2.1,4.2-1.5,10.2-8,13.3Z"/>
      </g>
      <g>
        <path class="cls-1" d="M266.8,401.6c1.8-7.1-4.3-10.6-8.4-18.6-6.1-11.8-14.2-12.2-17.4-7-3.2,5.2,1.8,11.9,0,18.1,0,0,0,0,0,0,0,0,0,0,0,0-1.7,6.2-9.5,9.2-9.5,15.4,0,6.1,7,10.1,18.4,3.3,7.8-4.6,14.8-4.4,17-11.3Z"/>
        <path class="cls-1" d="M276.9,386.2c-6.4,2.3-12.9.9-14.4-3.3-1.5-4.2,2.5-9.4,8.9-11.8,6.4-2.3,12.9-.9,14.4,3.3,1.5,4.2-2.5,9.4-8.9,11.8Z"/>
        <path class="cls-1" d="M267.2,420c-4.2-5.4-10.5-7.6-13.9-4.9-3.5,2.7-2.9,9.3,1.3,14.7,4.2,5.4,10.5,7.6,13.9,4.9,3.5-2.7,2.9-9.3-1.3-14.7Z"/>
        <path class="cls-1" d="M285.9,405.1c-7.2-.7-12.6-5.1-12.2-9.7.5-4.6,6.7-7.8,13.9-7,7.2.7,12.6,5.1,12.1,9.7-.5,4.6-6.7,7.8-13.9,7Z"/>
        <path class="cls-1" d="M284.9,408.8c-6.5-3.2-13.4-2.4-15.5,1.8-2.1,4.2,1.5,10.2,8,13.3,6.5,3.2,13.4,2.4,15.5-1.8,2.1-4.2-1.5-10.2-8-13.3Z"/>
      </g>
      <g>
        <path class="cls-1" d="M355.7,327.6c1.8,7.1-4.3,10.6-8.4,18.6-6.1,11.8-14.2,12.2-17.4,7-3.2-5.2,1.8-11.9,0-18.1,0,0,0,0,0,0,0,0,0,0,0,0-1.7-6.2-9.5-9.2-9.5-15.4,0-6.1,7-10.1,18.4-3.3,7.8,4.6,14.8,4.4,17,11.3Z"/>
        <path class="cls-1" d="M365.7,343c-6.4-2.3-12.9-.9-14.4,3.3-1.5,4.2,2.5,9.4,8.9,11.8,6.4,2.3,12.9.9,14.4-3.3,1.5-4.2-2.5-9.4-8.9-11.8Z"/>
        <path class="cls-1" d="M356,309.2c-4.2,5.4-10.5,7.6-13.9,4.9-3.5-2.7-2.9-9.3,1.3-14.7,4.2-5.4,10.5-7.6,13.9-4.9,3.5,2.7,2.9,9.3-1.3,14.7Z"/>
        <path class="cls-1" d="M374.8,324.1c-7.2.7-12.6,5.1-12.2,9.7.5,4.6,6.7,7.8,13.9,7,7.2-.7,12.6-5.1,12.1-9.7-.5-4.6-6.7-7.8-13.9-7Z"/>
        <path class="cls-1" d="M373.8,320.4c-6.5,3.2-13.4,2.4-15.5-1.8-2.1-4.2,1.5-10.2,8-13.3,6.5-3.2,13.4-2.4,15.5,1.8,2.1,4.2-1.5,10.2-8,13.3Z"/>
      </g>
      <g>
        <path class="cls-1" d="M459.1,401.6c1.8-7.1-4.3-10.6-8.4-18.6-6.1-11.8-14.2-12.2-17.4-7-3.2,5.2,1.8,11.9,0,18.1,0,0,0,0,0,0,0,0,0,0,0,0-1.7,6.2-9.5,9.2-9.5,15.4,0,6.1,7,10.1,18.4,3.3,7.8-4.6,14.8-4.4,17-11.3Z"/>
        <path class="cls-1" d="M469.2,386.2c-6.4,2.3-12.9.9-14.4-3.3-1.5-4.2,2.5-9.4,8.9-11.8,6.4-2.3,12.9-.9,14.4,3.3,1.5,4.2-2.5,9.4-8.9,11.8Z"/>
        <path class="cls-1" d="M459.5,420c-4.2-5.4-10.5-7.6-13.9-4.9-3.5,2.7-2.9,9.3,1.3,14.7,4.2,5.4,10.5,7.6,13.9,4.9,3.5-2.7,2.9-9.3-1.3-14.7Z"/>
        <path class="cls-1" d="M478.2,405.1c-7.2-.7-12.6-5.1-12.2-9.7.5-4.6,6.7-7.8,13.9-7,7.2.7,12.6,5.1,12.1,9.7-.5,4.6-6.7,7.8-13.9,7Z"/>
        <path class="cls-1" d="M477.2,408.8c-6.5-3.2-13.4-2.4-15.5,1.8-2.1,4.2,1.5,10.2,8,13.3,6.5,3.2,13.4,2.4,15.5-1.8,2.1-4.2-1.5-10.2-8-13.3Z"/>
      </g>
      <g>
        <path class="cls-1" d="M548,327.6c1.8,7.1-4.3,10.6-8.4,18.6-6.1,11.8-14.2,12.2-17.4,7-3.2-5.2,1.8-11.9,0-18.1,0,0,0,0,0,0,0,0,0,0,0,0-1.7-6.2-9.5-9.2-9.5-15.4,0-6.1,7-10.1,18.4-3.3,7.8,4.6,14.8,4.4,17,11.3Z"/>
        <path class="cls-1" d="M558,343c-6.4-2.3-12.9-.9-14.4,3.3-1.5,4.2,2.5,9.4,8.9,11.8,6.4,2.3,12.9.9,14.4-3.3,1.5-4.2-2.5-9.4-8.9-11.8Z"/>
        <path class="cls-1" d="M548.3,309.2c-4.2,5.4-10.5,7.6-13.9,4.9-3.5-2.7-2.9-9.3,1.3-14.7,4.2-5.4,10.5-7.6,13.9-4.9,3.5,2.7,2.9,9.3-1.3,14.7Z"/>
        <path class="cls-1" d="M567.1,324.1c-7.2.7-12.6,5.1-12.2,9.7.5,4.6,6.7,7.8,13.9,7,7.2-.7,12.6-5.1,12.1-9.7-.5-4.6-6.7-7.8-13.9-7Z"/>
        <path class="cls-1" d="M566.1,320.4c-6.5,3.2-13.4,2.4-15.5-1.8-2.1-4.2,1.5-10.2,8-13.3,6.5-3.2,13.4-2.4,15.5,1.8,2.1,4.2-1.5,10.2-8,13.3Z"/>
      </g>
      <g>
        <path class="cls-1" d="M651.4,401.6c1.8-7.1-4.3-10.6-8.4-18.6-6.1-11.8-14.2-12.2-17.4-7-3.2,5.2,1.8,11.9,0,18.1,0,0,0,0,0,0,0,0,0,0,0,0-1.7,6.2-9.5,9.2-9.5,15.4,0,6.1,7,10.1,18.4,3.3,7.8-4.6,14.8-4.4,17-11.3Z"/>
        <path class="cls-1" d="M661.5,386.2c-6.4,2.3-12.9.9-14.4-3.3-1.5-4.2,2.5-9.4,8.9-11.8,6.4-2.3,12.9-.9,14.4,3.3,1.5,4.2-2.5,9.4-8.9,11.8Z"/>
        <path class="cls-1" d="M651.8,420c-4.2-5.4-10.5-7.6-13.9-4.9-3.5,2.7-2.9,9.3,1.3,14.7,4.2,5.4,10.5,7.6,13.9,4.9,3.5-2.7,2.9-9.3-1.3-14.7Z"/>
        <path class="cls-1" d="M670.6,405.1c-7.2-.7-12.6-5.1-12.2-9.7.5-4.6,6.7-7.8,13.9-7,7.2.7,12.6,5.1,12.1,9.7-.5,4.6-6.7,7.8-13.9,7Z"/>
        <path class="cls-1" d="M669.5,408.8c-6.5-3.2-13.4-2.4-15.5,1.8-2.1,4.2,1.5,10.2,8,13.3,6.5,3.2,13.4,2.4,15.5-1.8,2.1-4.2-1.5-10.2-8-13.3Z"/>
      </g>
      <g>
        <path class="cls-1" d="M740.3,327.6c1.8,7.1-4.3,10.6-8.4,18.6-6.1,11.8-14.2,12.2-17.4,7-3.2-5.2,1.8-11.9,0-18.1,0,0,0,0,0,0,0,0,0,0,0,0-1.7-6.2-9.5-9.2-9.5-15.4,0-6.1,7-10.1,18.4-3.3,7.8,4.6,14.8,4.4,17,11.3Z"/>
        <path class="cls-1" d="M750.4,343c-6.4-2.3-12.9-.9-14.4,3.3-1.5,4.2,2.5,9.4,8.9,11.8,6.4,2.3,12.9.9,14.4-3.3,1.5-4.2-2.5-9.4-8.9-11.8Z"/>
        <path class="cls-1" d="M740.6,309.2c-4.2,5.4-10.5,7.6-13.9,4.9-3.5-2.7-2.9-9.3,1.3-14.7,4.2-5.4,10.5-7.6,13.9-4.9,3.5,2.7,2.9,9.3-1.3,14.7Z"/>
        <path class="cls-1" d="M759.4,324.1c-7.2.7-12.6,5.1-12.2,9.7.5,4.6,6.7,7.8,13.9,7,7.2-.7,12.6-5.1,12.1-9.7-.5-4.6-6.7-7.8-13.9-7Z"/>
        <path class="cls-1" d="M758.4,320.4c-6.5,3.2-13.4,2.4-15.5-1.8-2.1-4.2,1.5-10.2,8-13.3,6.5-3.2,13.4-2.4,15.5,1.8,2.1,4.2-1.5,10.2-8,13.3Z"/>
      </g>
    </g>
  </g>
</svg>