<svg width="1280" height="720" viewBox="0 0 1280 720" fill="none" xmlns="http://www.w3.org/2000/svg">
<g clip-path="url(#clip0_238_115)">
<path d="M15.7293 630.101C-1.42616 623.935 -18.8497 627.688 -22.8705 638.946C-26.8913 650.205 -16.1692 664.144 0.98633 670.577C18.1418 676.742 35.5654 672.989 39.5862 661.731C43.607 650.473 32.8848 636.534 15.7293 630.101Z" fill="#394a57"/>
<path d="M-10.2712 539.498C-21.5295 553.973 -38.4169 559.87 -47.5308 552.633C-56.9127 545.395 -55.3043 527.703 -44.0461 513.229C-32.7878 498.754 -15.9003 492.856 -6.78649 500.094C2.59542 507.331 0.987085 525.023 -10.2712 539.498Z" fill="#394a57"/>
<path d="M40.1221 579.438C20.8222 581.314 6.34721 593.108 7.41943 605.439C8.75971 617.769 25.3791 626.347 44.679 624.203C63.9789 622.326 78.4539 610.532 77.1136 598.201C75.7733 585.871 59.1539 577.293 39.854 579.438H40.1221Z" fill="#394a57"/>
<path d="M37.4424 569.52C20.0188 578.098 1.52308 575.953 -4.10607 564.695C-9.73521 553.437 -0.0852528 537.353 17.3383 529.044C34.7618 520.466 53.2576 522.611 58.8867 533.869C64.5159 545.127 54.8659 561.21 37.4424 569.52Z" fill="#394a57"/>
<path d="M266.092 787.181C270.917 768.149 254.566 758.767 243.576 737.323C227.225 705.692 205.512 704.62 196.934 718.559C188.357 732.498 201.759 750.457 196.934 767.077C192.377 783.696 171.469 791.738 171.469 808.357C171.469 824.708 190.233 835.431 220.791 817.203C241.7 804.872 260.463 805.408 266.361 786.913L266.092 787.181Z" fill="#394a57"/>
<path d="M293.166 745.9C276.01 752.065 258.587 748.313 254.566 737.054C250.545 725.796 261.267 711.857 278.423 705.424C295.578 699.259 313.002 703.011 317.022 714.27C321.043 725.528 310.321 739.467 293.166 745.9Z" fill="#394a57"/>
<path d="M504.393 588.82C509.218 607.852 492.866 617.234 481.876 638.678C465.525 670.309 443.812 671.381 435.234 657.442C426.657 643.503 440.059 625.544 435.234 608.924C430.678 592.305 409.769 584.263 409.769 567.644C409.769 551.292 428.533 540.57 459.091 558.798C480 571.128 498.763 570.592 504.661 589.088L504.393 588.82Z" fill="#394a57"/>
<path d="M531.199 630.1C514.043 623.935 496.62 627.687 492.599 638.946C488.578 650.204 499.3 664.143 516.456 670.576C533.611 676.741 551.035 672.989 555.055 661.73C559.076 650.472 548.354 636.533 531.199 630.1Z" fill="#394a57"/>
<path d="M505.197 539.498C493.939 553.973 477.052 559.87 467.938 552.633C458.556 545.395 460.164 527.703 471.422 513.229C482.681 498.754 499.568 492.856 508.682 500.094C518.064 507.331 516.456 525.023 505.197 539.498Z" fill="#394a57"/>
<path d="M555.592 579.438C536.292 581.314 521.817 593.108 522.889 605.439C524.23 617.769 540.849 626.347 560.149 624.203C579.449 622.326 593.924 610.532 592.584 598.201C591.243 585.871 574.624 577.293 555.324 579.438H555.592Z" fill="#394a57"/>
<path d="M552.911 569.52C535.487 578.098 516.991 575.953 511.362 564.695C505.733 553.437 515.383 537.353 532.807 529.044C550.23 520.466 568.726 522.611 574.355 533.869C579.984 545.127 570.334 561.21 552.911 569.52Z" fill="#394a57"/>
<path d="M781.561 787.181C786.386 768.149 770.035 758.767 759.044 737.323C742.693 705.692 720.981 704.62 712.403 718.559C703.825 732.498 717.228 750.457 712.403 767.077C707.846 783.696 686.938 791.738 686.938 808.357C686.938 824.708 705.702 835.431 736.26 817.203C757.168 804.872 775.932 805.408 781.829 786.913L781.561 787.181Z" fill="#394a57"/>
<path d="M808.635 745.9C791.48 752.065 774.056 748.313 770.035 737.054C766.014 725.796 776.737 711.857 793.892 705.424C811.048 699.259 828.471 703.011 832.492 714.27C836.513 725.528 825.791 739.467 808.635 745.9Z" fill="#394a57"/>
<path d="M1019.86 588.82C1024.69 607.852 1008.34 617.234 997.345 638.678C980.994 670.309 959.281 671.381 950.704 657.442C942.126 643.503 955.529 625.544 950.704 608.924C946.147 592.305 925.239 584.263 925.239 567.644C925.239 551.292 944.002 540.57 974.56 558.798C995.469 571.128 1014.23 570.592 1020.13 589.088L1019.86 588.82Z" fill="#394a57"/>
<path d="M1046.67 630.101C1029.51 623.935 1012.09 627.688 1008.07 638.946C1004.05 650.205 1014.77 664.144 1031.92 670.577C1049.08 676.742 1066.5 672.989 1070.52 661.731C1074.55 650.473 1063.82 636.534 1046.67 630.101Z" fill="#394a57"/>
<path d="M1020.67 539.498C1009.41 553.973 992.52 559.87 983.406 552.633C974.025 545.395 975.633 527.703 986.891 513.229C998.149 498.754 1015.04 492.856 1024.15 500.094C1033.53 507.331 1031.92 525.023 1020.67 539.498Z" fill="#394a57"/>
<path d="M1071.06 579.438C1051.76 581.314 1037.29 593.108 1038.36 605.439C1039.7 617.769 1056.32 626.347 1075.62 624.203C1094.92 622.326 1109.39 610.532 1108.05 598.201C1106.71 585.871 1090.09 577.293 1070.79 579.438H1071.06Z" fill="#394a57"/>
<path d="M1068.38 569.52C1050.96 578.098 1032.46 575.953 1026.83 564.695C1021.2 553.437 1030.85 537.353 1048.28 529.044C1065.7 520.466 1084.2 522.611 1089.82 533.869C1095.45 545.127 1085.8 561.21 1068.38 569.52Z" fill="#394a57"/>
<path d="M1297.03 787.181C1301.85 768.149 1285.5 758.767 1274.51 737.323C1258.16 705.692 1236.45 704.62 1227.87 718.559C1219.29 732.498 1232.7 750.457 1227.87 767.077C1223.31 783.696 1202.41 791.738 1202.41 808.357C1202.41 824.708 1221.17 835.431 1251.73 817.203C1272.64 804.872 1291.4 805.408 1297.3 786.913L1297.03 787.181Z" fill="#394a57"/>
<path d="M15.7293 182.101C-1.42616 175.935 -18.8497 179.688 -22.8705 190.946C-26.8913 202.205 -16.1692 216.144 0.98633 222.577C18.1418 228.742 35.5654 224.989 39.5862 213.731C43.607 202.473 32.8848 188.534 15.7293 182.101Z" fill="#394a57"/>
<path d="M-10.2712 91.4979C-21.5295 105.973 -38.4169 111.87 -47.5308 104.633C-56.9127 97.3951 -55.3043 79.7035 -44.0461 65.2285C-32.7878 50.7536 -15.9003 44.8564 -6.78649 52.0939C2.59542 59.3313 0.987085 77.023 -10.2712 91.4979Z" fill="#394a57"/>
<path d="M40.1221 131.438C20.8222 133.314 6.34721 145.108 7.41943 157.439C8.75971 169.769 25.3791 178.347 44.679 176.203C63.9789 174.326 78.4539 162.532 77.1136 150.201C75.7733 137.871 59.1539 129.293 39.854 131.438H40.1221Z" fill="#394a57"/>
<path d="M37.4424 121.52C20.0188 130.098 1.52308 127.953 -4.10607 116.695C-9.73521 105.437 -0.0852528 89.3535 17.3383 81.0438C34.7618 72.4661 53.2576 74.6105 58.8867 85.8688C64.5159 97.1271 54.8659 113.21 37.4424 121.52Z" fill="#394a57"/>
<path d="M266.092 339.181C270.917 320.149 254.566 310.767 243.576 289.323C227.225 257.692 205.512 256.62 196.934 270.559C188.357 284.498 201.759 302.457 196.934 319.077C192.377 335.696 171.469 343.738 171.469 360.357C171.469 376.708 190.233 387.431 220.791 369.203C241.7 356.872 260.463 357.408 266.361 338.913L266.092 339.181Z" fill="#394a57"/>
<path d="M293.166 297.9C276.01 304.065 258.587 300.313 254.566 289.054C250.545 277.796 261.267 263.857 278.423 257.424C295.578 251.259 313.002 255.011 317.022 266.27C321.043 277.528 310.321 291.467 293.166 297.9Z" fill="#394a57"/>
<path d="M267.164 388.502C255.906 374.027 239.019 368.13 229.905 375.367C220.523 382.605 222.131 400.296 233.389 414.771C244.648 429.246 261.535 435.143 270.649 427.906C280.031 420.669 278.423 402.977 267.164 388.502Z" fill="#394a57"/>
<path d="M317.29 348.562C297.991 346.686 283.516 334.891 284.588 322.561C285.928 310.23 302.548 301.653 321.847 303.797C341.147 305.673 355.622 317.468 354.282 329.798C352.942 342.129 336.322 350.707 317.022 348.562H317.29Z" fill="#394a57"/>
<path d="M314.61 358.48C297.187 349.903 278.691 352.047 273.062 363.305C267.433 374.564 277.082 390.647 294.506 398.957C311.93 407.534 330.425 405.39 336.054 394.132C341.684 382.873 332.034 366.79 314.61 358.48Z" fill="#394a57"/>
<path d="M504.393 140.82C509.218 159.852 492.866 169.234 481.876 190.678C465.525 222.309 443.812 223.381 435.234 209.442C426.657 195.503 440.059 177.544 435.234 160.924C430.678 144.305 409.769 136.263 409.769 119.644C409.769 103.292 428.533 92.5703 459.091 110.798C480 123.128 498.763 122.592 504.661 141.088L504.393 140.82Z" fill="#394a57"/>
<path d="M531.199 182.1C514.043 175.935 496.62 179.687 492.599 190.946C488.578 202.204 499.3 216.143 516.456 222.576C533.611 228.741 551.035 224.989 555.055 213.73C559.076 202.472 548.354 188.533 531.199 182.1Z" fill="#394a57"/>
<path d="M505.197 91.4979C493.939 105.973 477.052 111.87 467.938 104.633C458.556 97.3951 460.164 79.7035 471.422 65.2285C482.681 50.7536 499.568 44.8564 508.682 52.0939C518.064 59.3313 516.456 77.023 505.197 91.4979Z" fill="#394a57"/>
<path d="M555.592 131.438C536.292 133.314 521.817 145.108 522.889 157.439C524.23 169.769 540.849 178.347 560.149 176.203C579.449 174.326 593.924 162.532 592.584 150.201C591.243 137.871 574.624 129.293 555.324 131.438H555.592Z" fill="#394a57"/>
<path d="M552.911 121.52C535.487 130.098 516.991 127.953 511.362 116.695C505.733 105.437 515.383 89.3535 532.807 81.0438C550.23 72.4661 568.726 74.6105 574.355 85.8688C579.984 97.1271 570.334 113.21 552.911 121.52Z" fill="#394a57"/>
<path d="M781.561 339.181C786.386 320.149 770.035 310.767 759.044 289.323C742.693 257.692 720.981 256.62 712.403 270.559C703.825 284.498 717.228 302.457 712.403 319.077C707.846 335.696 686.938 343.738 686.938 360.357C686.938 376.708 705.702 387.431 736.26 369.203C757.168 356.872 775.932 357.408 781.829 338.913L781.561 339.181Z" fill="#394a57"/>
<path d="M808.635 297.9C791.48 304.065 774.056 300.313 770.035 289.054C766.014 277.796 776.737 263.857 793.892 257.424C811.048 251.259 828.471 255.011 832.492 266.27C836.513 277.528 825.791 291.467 808.635 297.9Z" fill="#394a57"/>
<path d="M782.634 388.502C771.376 374.027 754.488 368.13 745.374 375.367C735.992 382.605 737.601 400.296 748.859 414.771C760.117 429.246 777.005 435.143 786.119 427.906C795.5 420.669 793.892 402.977 782.634 388.502Z" fill="#394a57"/>
<path d="M832.759 348.562C813.459 346.686 798.984 334.891 800.057 322.561C801.397 310.23 818.016 301.653 837.316 303.797C856.616 305.673 871.091 317.468 869.751 329.798C868.411 342.129 851.791 350.707 832.491 348.562H832.759Z" fill="#394a57"/>
<path d="M830.08 358.48C812.656 349.903 794.16 352.047 788.531 363.305C782.902 374.564 792.552 390.647 809.975 398.957C827.399 407.534 845.895 405.39 851.524 394.132C857.153 382.873 847.503 366.79 830.08 358.48Z" fill="#394a57"/>
<path d="M1019.86 140.82C1024.69 159.852 1008.34 169.234 997.345 190.678C980.994 222.309 959.281 223.381 950.704 209.442C942.126 195.503 955.529 177.544 950.704 160.924C946.147 144.305 925.239 136.263 925.239 119.644C925.239 103.292 944.002 92.5703 974.56 110.798C995.469 123.128 1014.23 122.592 1020.13 141.088L1019.86 140.82Z" fill="#394a57"/>
<path d="M1046.67 182.101C1029.51 175.935 1012.09 179.688 1008.07 190.946C1004.05 202.205 1014.77 216.144 1031.92 222.577C1049.08 228.742 1066.5 224.989 1070.52 213.731C1074.55 202.473 1063.82 188.534 1046.67 182.101Z" fill="#394a57"/>
<path d="M1020.67 91.4979C1009.41 105.973 992.52 111.87 983.406 104.633C974.025 97.3951 975.633 79.7035 986.891 65.2285C998.149 50.7536 1015.04 44.8564 1024.15 52.0939C1033.53 59.3313 1031.92 77.023 1020.67 91.4979Z" fill="#394a57"/>
<path d="M1071.06 131.438C1051.76 133.314 1037.29 145.108 1038.36 157.439C1039.7 169.769 1056.32 178.347 1075.62 176.203C1094.92 174.326 1109.39 162.532 1108.05 150.201C1106.71 137.871 1090.09 129.293 1070.79 131.438H1071.06Z" fill="#394a57"/>
<path d="M1068.38 121.52C1050.96 130.098 1032.46 127.953 1026.83 116.695C1021.2 105.437 1030.85 89.3535 1048.28 81.0438C1065.7 72.4661 1084.2 74.6105 1089.82 85.8688C1095.45 97.1271 1085.8 113.21 1068.38 121.52Z" fill="#394a57"/>
<path d="M1297.03 339.181C1301.85 320.149 1285.5 310.767 1274.51 289.323C1258.16 257.692 1236.45 256.62 1227.87 270.559C1219.29 284.498 1232.7 302.457 1227.87 319.077C1223.31 335.696 1202.41 343.738 1202.41 360.357C1202.41 376.708 1221.17 387.431 1251.73 369.203C1272.64 356.872 1291.4 357.408 1297.3 338.913L1297.03 339.181Z" fill="#394a57"/>
<path d="M1298.1 388.502C1286.84 374.027 1269.96 368.13 1260.84 375.368C1251.46 382.605 1253.07 400.297 1264.33 414.772C1275.59 429.246 1292.47 435.144 1301.59 427.906C1310.97 420.669 1309.36 402.977 1298.1 388.502Z" fill="#394a57"/>
</g>
<defs>
<clipPath id="clip0_238_115">
<rect width="1280" height="720" fill="white"/>
</clipPath>
</defs>
</svg>
