<svg width="128" height="128" viewBox="0 0 128 128" fill="none" xmlns="http://www.w3.org/2000/svg">
<g clip-path="url(#clip0_252_115)">
<rect width="128" height="128" rx="32" fill="#47A3EE"/>
<path d="M64.75 63.2818C70.8258 55.1525 79.9137 58.669 92.1032 56.1081C110.129 52.3873 117.622 60.7606 114.813 68.7407C112.004 76.7208 100.43 77.179 95.3231 84.5235C90.1293 91.7604 93.7003 102.775 87.0241 108.182C80.4556 113.501 70.0445 109.451 67.4262 91.246C65.5781 78.8358 59.2589 71.4725 64.7705 63.0869L64.75 63.2818Z" fill="#FAFAFA"/>
<path d="M72.5257 38.9773C75.6297 47.8744 82.8051 53.6529 88.6357 51.6058C94.4662 49.5587 96.5777 40.7171 93.5814 31.7328C90.4773 22.8357 83.302 17.0573 77.4714 19.1044C71.6409 21.1515 69.5294 29.993 72.5257 38.9773Z" fill="#FAFAFA"/>
<path d="M44.6751 79.0026C54.1522 78.8164 62.0146 83.6819 62.072 89.6974C62.2165 95.8206 54.5864 100.93 45.1093 101.116C35.6323 101.302 27.7698 96.4363 27.7125 90.4208C27.5679 84.2976 35.1981 79.1887 44.6751 79.0026Z" fill="#FAFAFA"/>
<path d="M44.3264 45.7664C51.3584 52.9091 60.805 54.8871 65.4096 50.4453C69.9269 45.8958 67.9664 36.4293 60.8267 29.3739C53.7947 22.2313 44.348 20.2532 39.8307 24.8027C35.3134 29.3522 37.2739 38.8187 44.4136 45.8742L44.3264 45.7664Z" fill="#FAFAFA"/>
<path d="M41.2142 50.07C50.3279 54.2789 55.4831 62.4064 52.7917 68.33C50.1002 74.2536 40.5003 75.609 31.4943 71.3129C22.3806 67.104 17.2254 58.9765 19.9169 53.0529C22.6083 47.1292 32.2082 45.7739 41.2142 50.07Z" fill="#FAFAFA"/>
</g>
<defs>
<clipPath id="clip0_252_115">
<rect width="128" height="128" rx="32" fill="white"/>
</clipPath>
</defs>
</svg>
